<svg width="274" height="260" viewBox="0 0 274 260" fill="none" xmlns="http://www.w3.org/2000/svg">
<path d="M225.482 60.4161C225.262 60.416 225.051 60.3308 224.893 60.1785C224.735 60.0261 224.642 59.8185 224.634 59.5991C224.619 59.2181 222.96 21.3161 206.434 7.69906C201.564 3.68606 195.808 2.16106 189.334 3.16406C175.656 5.28006 166.193 15.3531 161.206 33.1041C157.447 46.4811 157.796 59.4121 157.8 59.5411C157.803 59.6527 157.785 59.7639 157.745 59.8684C157.706 59.9728 157.646 60.0685 157.569 60.1499C157.493 60.2313 157.401 60.2968 157.299 60.3427C157.198 60.3887 157.088 60.4141 156.976 60.4176C156.865 60.421 156.753 60.4025 156.649 60.363C156.544 60.3235 156.449 60.2638 156.367 60.1873C156.286 60.1109 156.22 60.0191 156.175 59.9173C156.129 59.8155 156.103 59.7057 156.1 59.5941C156.1 59.4631 155.737 46.3051 159.558 32.6811C161.813 24.6391 165.063 17.9971 169.218 12.9401C174.456 6.56706 181.135 2.71606 189.071 1.48406C196.049 0.404058 202.255 2.05406 207.515 6.38906C214.723 12.3291 220.081 23.0891 223.44 38.3831C225.927 49.7031 226.328 59.4381 226.331 59.5351C226.335 59.6465 226.317 59.7577 226.279 59.8623C226.24 59.9668 226.181 60.0628 226.105 60.1446C226.029 60.2264 225.938 60.2925 225.837 60.3391C225.736 60.3856 225.626 60.4118 225.515 60.4161H225.482Z" fill="#9855D9"/>
<path d="M119.036 49.1841C119.099 48.7629 119.309 48.3777 119.629 48.0969C119.949 47.816 120.358 47.6577 120.784 47.65L216.815 46.063L248.256 233.516H96.5247C91.3127 233.516 119.036 49.1841 119.036 49.1841Z" fill="#6A3C98"/>
<path d="M233.609 47.4921L216.815 46.063L248.256 233.516H267.065C267.958 233.516 268.841 233.317 269.648 232.933C270.455 232.549 271.166 231.99 271.73 231.297C272.293 230.604 272.696 229.794 272.907 228.926C273.118 228.057 273.134 227.153 272.952 226.278L236.203 49.7911C236.075 49.1796 235.754 48.6256 235.287 48.2114C234.82 47.7971 234.231 47.5449 233.609 47.4921Z" fill="#6A3C98"/>
<path d="M204.519 60.0161C204.299 60.016 204.088 59.9308 203.93 59.7785C203.772 59.6261 203.679 59.4185 203.671 59.1991C203.656 58.8181 201.997 20.9161 185.471 7.29906C180.601 3.28606 174.847 1.76105 168.371 2.76305C154.695 4.87905 145.233 14.9531 140.245 32.7041C136.487 46.0811 136.836 59.0121 136.845 59.1411C136.848 59.2526 136.83 59.3637 136.79 59.468C136.751 59.5723 136.691 59.6679 136.615 59.7491C136.538 59.8304 136.446 59.8958 136.345 59.9416C136.243 59.9874 136.133 60.0127 136.022 60.0161C135.797 60.0199 135.58 59.9361 135.417 59.7824C135.253 59.6287 135.156 59.4173 135.146 59.1931C135.146 59.0621 134.783 45.9051 138.604 32.2811C140.856 24.2361 144.103 17.5931 148.256 12.5361C153.491 6.16406 160.17 2.30906 168.107 1.08106C175.085 5.8651e-05 181.29 1.65106 186.55 5.98606C193.758 11.9261 199.116 22.6861 202.475 37.9801C204.962 49.3001 205.363 59.0341 205.367 59.1311C205.376 59.3559 205.296 59.5753 205.144 59.7412C204.992 59.9071 204.781 60.0059 204.556 60.0161H204.519Z" fill="#9855D9"/>
<path d="M144.456 128.946C144.443 128.594 142.912 93.5861 127.615 80.9811C123.083 77.2471 117.728 75.8261 111.701 76.7591C99.0147 78.7221 90.2417 88.0591 85.6237 104.496C82.1547 116.85 82.4777 128.786 82.4817 128.905L81.3147 128.942C81.3147 128.821 80.9807 116.729 84.4927 104.206C86.5637 96.8221 89.5457 90.7271 93.3557 86.0891C98.1477 80.2571 104.256 76.7291 111.523 75.6051C117.893 74.6201 123.558 76.1251 128.358 80.0811C134.964 85.5251 139.878 95.4061 142.958 109.448C145.246 119.861 145.614 128.812 145.618 128.901L144.456 128.946Z" fill="#6F3BA2"/>
<path d="M33.4087 226.205L48.9137 123.999C48.9855 123.526 49.2224 123.094 49.5825 122.78C49.9426 122.465 50.4025 122.288 50.8807 122.28L140.472 120.8L159.856 236.182H41.0357C35.9957 236.182 32.6737 231.19 33.4087 226.205Z" fill="#CBAAEC"/>
<path d="M157.746 122.27L140.472 120.8L159.856 236.182L178.987 235.688C179.43 235.677 179.865 235.568 180.262 235.369C180.659 235.171 181.007 234.888 181.282 234.54C181.557 234.192 181.752 233.788 181.854 233.357C181.956 232.925 181.962 232.476 181.871 232.042L159.084 123.369C158.998 123.072 158.824 122.808 158.586 122.612C158.347 122.415 158.054 122.296 157.746 122.27Z" fill="#91B3FA"/>
<path d="M125.137 128.575C125.124 128.222 123.593 93.2151 108.296 80.6101C103.764 76.8751 98.4096 75.4551 92.3816 76.3871C79.6956 78.3511 70.9226 87.6871 66.3046 104.125C62.8356 116.478 63.1586 128.415 63.1626 128.534L61.9956 128.57C61.9956 128.449 61.6626 116.358 65.1746 103.834C67.2446 96.4511 70.2266 90.3561 74.0366 85.7181C78.8286 79.8851 84.9366 76.3581 92.2036 75.2341C98.5746 74.2481 104.239 75.7541 109.04 79.7101C115.645 85.1541 120.559 95.0341 123.64 109.076C125.928 119.49 126.296 128.44 126.3 128.529L125.137 128.575Z" fill="#6F3BA2"/>
<path d="M60.1907 162.553C60.1837 162.364 59.3617 143.585 51.1807 136.845C48.7807 134.865 45.9377 134.112 42.7397 134.606C26.5397 137.113 27.1397 162.266 27.1397 162.52L26.1887 162.549C26.1887 162.484 26.0087 155.949 27.9067 149.182C30.4457 140.125 35.5237 134.76 42.5907 133.666C46.0687 133.128 49.1617 133.951 51.7827 136.111C60.2917 143.124 61.1067 161.727 61.1376 162.511L60.1907 162.553Z" fill="#6F3BA2"/>
<path d="M10.4827 154.747L60.6557 153.916L75.3837 237.437H0.406664C-2.15534 237.437 8.17566 164.58 9.45066 155.653C9.48699 155.404 9.6108 155.176 9.7999 155.01C9.98901 154.844 10.2311 154.751 10.4827 154.747Z" fill="#91B3FA"/>
<path d="M69.4796 154.67L60.6556 153.916L75.3836 237.437H85.2456C85.5154 237.437 85.7817 237.377 86.0254 237.261C86.2691 237.146 86.484 236.977 86.6546 236.768C86.8251 236.559 86.9471 236.315 87.0116 236.053C87.0761 235.791 87.0816 235.518 87.0276 235.254L70.7936 155.832C70.7299 155.522 70.5674 155.241 70.3304 155.032C70.0935 154.822 69.7949 154.695 69.4796 154.67Z" fill="#7D97F4"/>
<path d="M49.7916 162.353C49.7836 162.164 48.9616 143.385 40.7816 136.645C38.3816 134.664 35.5386 133.912 32.3406 134.406C16.1406 136.913 16.7406 162.066 16.7406 162.32L15.7896 162.349C15.7896 162.284 15.6096 155.749 17.5066 148.982C20.0466 139.925 25.1246 134.56 32.1906 133.466C35.6696 132.928 38.7616 133.751 41.3836 135.911C49.8926 142.924 50.7076 161.527 50.7376 162.311L49.7916 162.353Z" fill="#6F3BA2"/>
<path d="M204.779 246.139C204.779 246.139 205.569 250.614 205.957 255.044C205.991 255.455 205.942 255.869 205.813 256.26C205.684 256.651 205.476 257.013 205.203 257.322C204.93 257.631 204.598 257.881 204.225 258.058C203.853 258.235 203.448 258.335 203.037 258.351C197.137 258.597 184.519 259.074 179.991 258.872C179.832 258.865 179.679 258.819 179.541 258.74C179.404 258.661 179.288 258.551 179.203 258.418C179.117 258.284 179.065 258.133 179.05 257.975C179.035 257.818 179.058 257.659 179.117 257.512C179.327 256.981 179.734 256.551 180.254 256.312L201.098 246.732L204.779 246.139Z" fill="#6F3BA2"/>
<path d="M205.427 243.51L204.791 248.863C204.791 248.863 201.14 250.563 198.646 248.648L200.159 242.683L205.427 243.51Z" fill="#FEBBBA"/>
<path d="M204.949 142.875C205.224 144.275 206.422 212.631 199.115 243.265C199.055 243.506 199.083 243.761 199.195 243.983C199.307 244.205 199.495 244.379 199.725 244.474C200.845 244.932 203.043 245.596 205.675 245.684C206.071 245.697 206.461 245.578 206.783 245.345C207.104 245.113 207.339 244.78 207.452 244.399C209.541 237.291 219.552 201.68 220.852 167.663C222.311 129.651 220.852 166.368 220.852 166.368L219.996 142.868L204.949 142.875Z" fill="#B788E4"/>
<path d="M228.756 248.474C228.756 248.474 230.014 250.733 231.232 256.736C231.284 256.992 231.283 257.255 231.227 257.51C231.172 257.765 231.063 258.005 230.909 258.216C230.754 258.426 230.558 258.601 230.331 258.731C230.104 258.86 229.853 258.94 229.594 258.966C227.646 259.158 224.647 259.404 222.245 259.388C221.983 259.387 221.725 259.331 221.486 259.224C221.248 259.116 221.035 258.959 220.861 258.764C220.688 258.568 220.558 258.338 220.479 258.089C220.401 257.839 220.376 257.576 220.407 257.316C220.673 255.125 221.502 251.53 224.062 248.728L228.756 248.474Z" fill="#6F3BA2"/>
<path d="M229.862 241.589L228.378 249.684C228.378 249.684 226.91 250.775 224.008 249.984L224.716 241.274L229.862 241.589Z" fill="#FEBBBA"/>
<path d="M233.871 144.973C239.847 181.039 232.571 234.114 230.121 244.502C230.048 244.813 229.886 245.096 229.653 245.315C229.421 245.534 229.129 245.679 228.814 245.732C227.719 245.914 225.914 246.062 224.139 245.546C223.84 245.459 223.576 245.28 223.385 245.035C223.193 244.789 223.084 244.49 223.072 244.179C222.743 235.779 223.335 184.222 217.772 163.846C217.489 162.814 216.858 161.912 215.986 161.292L205.178 153.609L204.35 141.189L233.871 144.973Z" fill="#B788E4"/>
<path d="M198.646 77.9161C198.646 77.9161 226.101 71.0741 245.301 81.2421L233.871 144.969C233.871 144.969 215.686 146.435 204.345 142.827L198.646 77.9161Z" fill="#91B3FA"/>
<path d="M229.437 58.8271L231.537 76.9101C231.602 77.0337 231.622 77.1766 231.593 77.3135C231.563 77.4504 231.486 77.5725 231.376 77.6581C229.969 78.7401 224.807 82.0321 217.499 78.8131C217.122 78.6495 216.786 78.4051 216.514 78.0971C216.242 77.7892 216.042 77.4252 215.927 77.0311L218.9 61.3591L229.437 58.8271Z" fill="url(#paint0_linear_568_4998)"/>
<path d="M212.585 49.4001C212.585 49.4001 209.911 62.4671 212.025 66.8051C214.139 71.1431 221.481 68.6241 226.886 63.0051L227.831 49.4681L212.585 49.4001Z" fill="#FEBBBA"/>
<path d="M224.834 57.0961C224.764 57.0868 224.697 57.0625 224.638 57.0248C224.578 56.987 224.528 56.9369 224.49 56.8777C224.452 56.8185 224.427 56.7517 224.417 56.6821C224.408 56.6124 224.413 56.5414 224.434 56.4741C224.698 55.5981 225.158 53.8341 225.059 52.4371C225.059 52.4371 225.935 51.4281 221.84 51.6371C217.745 51.8461 211.621 52.1071 209.463 49.2041C207.358 46.3741 208.078 37.4851 214.853 42.4041C214.912 42.4482 214.982 42.478 215.055 42.4912C215.128 42.5043 215.203 42.5005 215.274 42.48C215.346 42.4595 215.411 42.4229 215.466 42.373C215.522 42.3231 215.564 42.2612 215.592 42.1921C216.092 40.9101 217.561 38.1171 220.881 38.5691C223.988 38.9921 224.889 40.9121 225.15 41.9371C225.167 42.0075 225.201 42.073 225.247 42.1287C225.294 42.1844 225.352 42.2288 225.418 42.2588C225.485 42.2888 225.557 42.3035 225.629 42.3018C225.702 42.3001 225.773 42.2821 225.838 42.2491C227.148 41.5761 230.41 40.3681 232.97 43.3251C235.079 45.7621 234.716 47.5991 234.188 48.6021C234.148 48.6757 234.128 48.7584 234.13 48.842C234.132 48.9256 234.155 49.0073 234.198 49.0791C234.241 49.1509 234.302 49.2102 234.375 49.2514C234.448 49.2926 234.53 49.3142 234.614 49.3141C235.608 49.3241 237.014 49.7511 237.524 51.9221C238.231 54.9221 234.852 55.6361 233.873 55.7781C233.794 55.789 233.718 55.8191 233.654 55.8658C233.589 55.9125 233.537 55.9745 233.502 56.0461C232.959 57.1751 230.443 62.0331 226.646 63.6461C226.57 63.6775 226.487 63.6892 226.405 63.6801C226.323 63.671 226.245 63.6414 226.178 63.594C226.11 63.5466 226.056 63.483 226.02 63.4091C225.984 63.3352 225.967 63.2533 225.971 63.1711L226.215 57.7251C226.22 57.6031 226.18 57.4833 226.102 57.3896C226.023 57.2959 225.913 57.235 225.792 57.2191L224.834 57.0961Z" fill="#6F3BA2"/>
<path d="M224.356 58.0001C224.356 58.0001 227.766 53.8081 228.805 56.1861C229.844 58.5641 226.01 60.8961 223.678 60.5861L224.356 58.0001Z" fill="#FEBBBA"/>
<path d="M250.323 116.227C250.323 116.227 248.45 140.157 232.697 141.189C232.697 141.189 225.945 140.57 223.014 142.872C220.083 145.174 221.504 148.72 221.504 148.72L234.213 147.17C234.213 147.17 252.39 150.197 263.32 119.77L250.323 116.227Z" fill="#FEBBBA"/>
<path d="M245.301 81.2461C245.301 81.2461 266.864 94.0731 263.32 119.772C263.32 119.772 255.62 123.11 250.02 118.635C250.02 118.635 245.655 101.935 236.175 101.107L245.301 81.2461Z" fill="#91B3FA"/>
<path d="M184.32 90.4421C184.32 90.4421 173.965 95.2551 161.854 82.4051C153.577 73.6231 148.513 79.0051 146.913 82.5531C145.313 86.1011 149.141 85.8021 150.476 85.8021C151.811 85.8021 151.976 81.9461 154.331 82.4711C156.686 82.9961 155.992 82.2931 156.14 84.6561C156.288 87.0191 168.94 113.705 184.599 100.708L184.32 90.4421Z" fill="#FEBBBA"/>
<path d="M136.7 94.1701L172.283 92.1701C175.527 91.9881 178.373 94.0791 178.788 96.9481L186.756 152.03C187.231 155.313 184.356 158.221 180.638 158.221H134.208C130.685 158.221 127.878 155.599 128.047 152.466L130.926 99.3841C131.078 96.5911 133.564 94.3461 136.7 94.1701Z" fill="#FDDB43"/>
<path d="M142.709 99.7661C142.444 99.7661 142.19 99.6637 141.999 99.4805C141.809 99.2972 141.696 99.0473 141.686 98.7831C141.656 98.0761 141.098 81.4391 152.807 79.6101C155.307 79.2201 157.534 79.8101 159.413 81.3591C165.113 86.0701 165.595 98.1921 165.613 98.7051C165.614 98.9723 165.512 99.2298 165.327 99.4227C165.142 99.6155 164.889 99.7286 164.622 99.7379C164.355 99.7471 164.095 99.6518 163.897 99.4722C163.699 99.2926 163.579 99.0428 163.563 98.7761C163.563 98.6601 163.095 87.0611 158.105 82.9391C156.679 81.7611 155.049 81.3391 153.123 81.6391C143.204 83.1881 143.723 98.5451 143.735 98.7001C143.746 98.9718 143.648 99.2367 143.464 99.4368C143.28 99.6369 143.024 99.7557 142.753 99.7671L142.709 99.7661Z" fill="#BDD0FB"/>
<path d="M198.646 77.9161L181.94 90.4381C181.94 90.4381 181.64 99.8191 183.86 104.255L202.47 99.6811L198.646 77.9161Z" fill="#91B3FA"/>
<path d="M98.3846 169.946V184.78C98.3846 190.304 100.462 195.624 103.457 200.264L106.291 203.889C109.571 208.968 115.191 211.873 121.233 211.873H183.3L183.771 210.273L198.983 154.538L211.749 147.656L209.849 144.179L195.585 151.916L190.695 169.945L98.3846 169.946ZM102.814 174.375H189.606L183.484 196.96L180.256 208.921H121.233C116.547 208.921 112.148 206.179 109.608 202.244L107.028 198.131C104.447 194.139 102.814 189.531 102.814 184.78V174.375Z" fill="#FFEA8C"/>
<path d="M106.956 232.101C106.956 233.201 107.85 234.313 108.956 234.313H181.781C182.881 234.313 183.718 232.754 183.718 231.655V197.316C183.718 196.938 183.644 196.977 183.46 196.675L180.26 208.922H179.291V229.885H108.956C107.849 229.884 106.956 230.998 106.956 232.101Z" fill="#FFEA8C"/>
<path d="M147.385 172.031H144.727V209.413H147.385V172.031Z" fill="#FFEA8C"/>
<path d="M170.866 172.031H168.208V209.413H170.866V172.031Z" fill="#FFEA8C"/>
<path d="M124.457 172.031H121.799V209.413H124.457V172.031Z" fill="#FFEA8C"/>
<path d="M188.597 183.027H102.134V185.404H188.597V183.027Z" fill="#FFEA8C"/>
<path d="M184.822 196.04H104.299V198.417H184.822V196.04Z" fill="#FFEA8C"/>
<path d="M163.864 245.629C163.863 247.328 164.367 248.988 165.31 250.4C166.254 251.812 167.595 252.913 169.164 253.563C170.733 254.213 172.46 254.383 174.126 254.052C175.791 253.721 177.322 252.903 178.523 251.702C179.724 250.501 180.541 248.971 180.873 247.305C181.204 245.639 181.034 243.913 180.384 242.344C179.734 240.774 178.633 239.433 177.221 238.49C175.808 237.546 174.148 237.043 172.45 237.043C170.172 237.043 167.989 237.948 166.378 239.558C164.768 241.168 163.864 243.352 163.864 245.629ZM167.264 245.629C167.264 244.604 167.568 243.602 168.137 242.749C168.707 241.897 169.516 241.233 170.463 240.841C171.411 240.448 172.453 240.346 173.458 240.546C174.464 240.746 175.387 241.24 176.112 241.965C176.837 242.689 177.33 243.613 177.53 244.619C177.73 245.624 177.627 246.666 177.235 247.613C176.842 248.56 176.178 249.37 175.325 249.939C174.473 250.508 173.471 250.812 172.446 250.812C171.072 250.811 169.755 250.264 168.784 249.293C167.813 248.321 167.267 247.003 167.268 245.629H167.264Z" fill="#FFEA8C"/>
<path d="M110.504 245.629C110.503 247.327 111.007 248.988 111.95 250.4C112.894 251.812 114.235 252.913 115.804 253.563C117.373 254.213 119.1 254.383 120.765 254.052C122.431 253.721 123.961 252.903 125.162 251.702C126.363 250.501 127.181 248.971 127.513 247.306C127.844 245.64 127.674 243.913 127.024 242.344C126.374 240.775 125.274 239.434 123.861 238.49C122.449 237.547 120.789 237.043 119.091 237.043C116.813 237.043 114.629 237.948 113.019 239.558C111.409 241.168 110.504 243.352 110.504 245.629ZM113.904 245.629C113.904 244.604 114.208 243.602 114.777 242.75C115.347 241.897 116.156 241.233 117.103 240.841C118.05 240.448 119.092 240.346 120.098 240.546C121.103 240.746 122.027 241.239 122.752 241.964C123.476 242.689 123.97 243.613 124.17 244.618C124.37 245.623 124.267 246.665 123.875 247.613C123.483 248.56 122.819 249.369 121.966 249.939C121.114 250.508 120.112 250.812 119.087 250.812C117.713 250.811 116.395 250.264 115.424 249.293C114.453 248.321 113.908 247.003 113.908 245.629H113.904Z" fill="#FFEA8C"/>
<path d="M201.001 147.658C201.001 148.728 201.426 149.754 202.182 150.511C202.939 151.267 203.965 151.692 205.035 151.692H218.456C219.526 151.692 220.552 151.267 221.308 150.511C222.065 149.754 222.49 148.728 222.491 147.658C222.49 146.588 222.065 145.562 221.308 144.806C220.552 144.049 219.526 143.624 218.456 143.624H205.035C203.965 143.624 202.939 144.049 202.182 144.806C201.426 145.562 201.001 146.588 201.001 147.658Z" fill="#FF928E"/>
<defs>
<linearGradient id="paint0_linear_568_4998" x1="229.012" y1="98.7321" x2="221.367" y2="61.5251" gradientUnits="userSpaceOnUse">
<stop stop-color="#FEBBBA"/>
<stop offset="1" stop-color="#FF928E"/>
</linearGradient>
</defs>
</svg>
