<svg width="33" height="33" viewBox="0 0 33 33" fill="none" xmlns="http://www.w3.org/2000/svg">
<circle cx="16.5" cy="16.5" r="16.5" fill="white"/>
<path d="M25.7371 14.8506H25.0157V14.8101H16.9556V18.7152H22.0169C21.2785 20.9884 19.2944 22.6202 16.9556 22.6202C13.9882 22.6202 11.5823 19.9975 11.5823 16.7626C11.5823 13.5278 13.9882 10.9051 16.9556 10.9051C18.3254 10.9051 19.5716 11.4684 20.5204 12.3885L23.0535 9.62718C21.4541 8.0022 19.3146 7.00007 16.9556 7.00007C12.0099 7.00007 8 11.3713 8 16.7626C8 22.154 12.0099 26.5252 16.9556 26.5252C21.9014 26.5252 25.9113 22.154 25.9113 16.7626C25.9113 16.1081 25.8495 15.4691 25.7371 14.8506Z" fill="#FFC107"/>
<path d="M9.03552 12.2186L11.9779 14.5709C12.7741 12.4221 14.7022 10.905 16.9586 10.905C18.3283 10.905 19.5745 11.4683 20.5234 12.3885L23.0565 9.62711C21.457 8.00213 19.3175 7 16.9586 7C13.5187 7 10.5356 9.11701 9.03552 12.2186Z" fill="#FF3D00"/>
<path d="M16.9542 26.5249C19.2674 26.5249 21.3693 25.5598 22.9585 23.9905L20.1867 21.4337C19.2574 22.2041 18.1218 22.6208 16.9542 22.6198C14.6248 22.6198 12.647 21.0007 11.9019 18.7412L8.98145 21.194C10.4636 24.3556 13.4736 26.5249 16.9542 26.5249Z" fill="#4CAF50"/>
<path d="M25.7362 14.8507H25.0148V14.8101H16.9547V18.7152H22.016C21.6628 19.7971 21.0266 20.7425 20.1859 21.4345L20.1872 21.4336L22.959 23.9904C22.7629 24.1847 25.9103 21.6439 25.9103 16.7627C25.9103 16.1081 25.8486 15.4691 25.7362 14.8507Z" fill="#1976D2"/>
</svg>
