<svg width="185" height="185" viewBox="0 0 185 185" fill="none" xmlns="http://www.w3.org/2000/svg">
<defs>
<filter id="filter0_f_748_4893" x="-4.76453" y="167.303" width="193.576" height="22.4614" filterUnits="userSpaceOnUse" color-interpolation-filters="sRGB">
<feFlood flood-opacity="0" result="BackgroundImageFix"/>
<feBlend mode="normal" in="SourceGraphic" in2="BackgroundImageFix" result="shape"/>
<feGaussianBlur stdDeviation="2.38227" result="effect1_foregroundBlur_748_4893"/>
</filter>
<radialGradient id="paint0_radial_748_4893" cx="0" cy="0" r="1" gradientUnits="userSpaceOnUse" gradientTransform="translate(92.0236 178.534) rotate(91.1811) scale(6.60382 93.9829)">
<stop stop-color="#ABABAB" stop-opacity="0.79"/>
<stop offset="1" stop-color="#272727" stop-opacity="0"/>
</radialGradient>
<linearGradient id="paint1_linear_748_4893" x1="92.0065" y1="159.744" x2="92.0065" y2="0" gradientUnits="userSpaceOnUse">
<stop stop-color="#F5BF00"/>
<stop offset="0.5123" stop-color="#FFD028"/>
<stop offset="1" stop-color="#FFF3C4"/>
</linearGradient>
<linearGradient id="paint2_linear_748_4893" x1="75.0398" y1="131.112" x2="75.0398" y2="3.50192" gradientUnits="userSpaceOnUse">
<stop stop-color="white" stop-opacity="0.06"/>
<stop offset="1" stop-color="#DFDFDF" stop-opacity="0.47"/>
</linearGradient>
<clipPath id="clip0_748_4893">
<rect width="184.047" height="185" fill="white"/>
</clipPath>
</defs>
<g clip-path="url(#clip0_748_4893)">
<g filter="url(#filter0_f_748_4893)">
<path d="M92.0236 185C142.847 185 184.047 182.105 184.047 178.534C184.047 174.963 142.847 172.068 92.0236 172.068C41.2003 172.068 0 174.963 0 178.534C0 182.105 41.2003 185 92.0236 185Z" fill="url(#paint0_radial_748_4893)"/>
</g>
<path d="M27.4985 159.748C17.6291 159.748 9.73358 155.936 5.85389 149.198C1.9742 142.528 2.58678 133.747 7.5555 125.171L72.0809 13.4768C76.9816 4.90066 84.2645 0 92.0239 0C99.7832 0 107.066 4.90066 111.967 13.4768L176.492 125.171C181.461 133.747 182.074 142.46 178.194 149.198C174.314 155.868 166.419 159.748 156.549 159.748H27.4985Z" fill="url(#paint1_linear_748_4893)"/>
<path d="M92.0246 0.680648C99.5117 0.680648 106.59 5.44518 111.355 13.8171L175.88 125.511C180.713 133.883 181.326 142.323 177.582 148.858C173.838 155.324 166.147 159.067 156.55 159.067H27.4992C17.834 159.067 10.2108 155.324 6.4672 148.858C2.72364 142.391 3.33622 133.883 8.16882 125.511L72.6942 13.8171C77.4587 5.44518 84.5375 0.680648 92.0246 0.680648ZM92.0246 0C84.2652 0 76.9823 4.90066 72.0816 13.4768L7.55624 125.171C2.58751 133.747 1.97493 142.46 5.85462 149.198C9.73431 155.868 17.6298 159.748 27.4992 159.748H156.482C166.351 159.748 174.247 155.936 178.127 149.198C182.006 142.528 181.394 133.747 176.425 125.171L111.968 13.4768C106.999 4.90066 99.7159 0 92.0246 0Z" fill="#8C7100"/>
<path d="M92.0237 11.0944C95.7672 11.0944 99.4427 13.8851 102.37 18.99L134.632 74.8711L166.895 130.752C169.822 135.857 170.434 140.417 168.597 143.685C166.759 146.884 162.471 148.721 156.549 148.721H92.0237H27.4983C21.5767 148.721 17.3566 146.952 15.4508 143.685C13.6131 140.486 14.1576 135.857 17.1524 130.752L49.4151 74.8711L81.6778 18.99C84.6046 13.8851 88.2801 11.0944 92.0237 11.0944ZM92.0237 7.01056C86.9869 7.01056 81.9501 10.3457 78.1385 16.948L45.8758 72.8292L13.6131 128.71C5.92176 141.983 12.1837 152.737 27.4983 152.737H92.0237H156.549C171.864 152.737 178.126 141.983 170.434 128.71L138.172 72.8292L105.909 16.948C102.029 10.3457 97.0605 7.01056 92.0237 7.01056Z" fill="black"/>
<path d="M91.8199 134.7C87.3276 134.7 84.3328 131.569 84.3328 126.805C84.3328 122.04 87.3957 118.909 92.0921 118.909C96.7886 118.909 99.5793 121.904 99.7154 126.873C99.7154 131.569 96.7206 134.7 92.0921 134.7H91.8199ZM87.3276 109.516L84.4689 50.5722C84.3328 48.1899 85.8302 45.2631 87.9402 44.5825C89.3015 44.1741 90.5947 43.9699 91.956 43.9699C93.3173 43.9699 94.6786 44.1741 96.108 44.6506C98.3541 45.3312 99.8515 48.3261 99.7835 50.6403L96.9247 109.516C96.7886 111.899 94.8147 113.804 92.4325 113.804H91.888C89.4376 113.804 87.3957 111.899 87.3276 109.516Z" fill="black"/>
<path d="M141.507 71.6723L108.904 15.2466C104.616 7.82757 98.4217 3.53949 91.9555 3.53949C85.4894 3.53949 79.3635 7.82757 75.0074 15.2466L10.6181 126.941C9.80134 128.302 9.12069 129.732 8.57617 131.093L141.507 71.6723Z" fill="url(#paint2_linear_748_4893)"/>
</g>

</svg>
