<svg width="327" height="18" viewBox="0 0 327 18" fill="none" xmlns="http://www.w3.org/2000/svg">
<line x1="2.18557e-08" y1="9.74998" x2="140.098" y2="9.74999" stroke="white" stroke-opacity="0.6" stroke-width="0.5"/>
<path d="M159.325 16.16C158.536 16.16 157.805 16.0213 157.133 15.744C156.472 15.456 155.89 15.056 155.389 14.544C154.898 14.032 154.514 13.4293 154.237 12.736C153.97 12.032 153.837 11.264 153.837 10.432C153.837 9.6 153.97 8.83733 154.237 8.144C154.514 7.44 154.898 6.832 155.389 6.32C155.89 5.79733 156.472 5.39733 157.133 5.12C157.805 4.832 158.536 4.688 159.325 4.688C160.125 4.688 160.856 4.832 161.517 5.12C162.189 5.39733 162.77 5.79733 163.261 6.32C163.762 6.832 164.146 7.44 164.413 8.144C164.69 8.83733 164.829 9.6 164.829 10.432C164.829 11.2533 164.69 12.016 164.413 12.72C164.146 13.4133 163.762 14.0213 163.261 14.544C162.77 15.056 162.189 15.456 161.517 15.744C160.856 16.0213 160.125 16.16 159.325 16.16ZM159.325 14.928C159.933 14.928 160.493 14.8213 161.005 14.608C161.528 14.384 161.976 14.0693 162.349 13.664C162.722 13.2587 163.01 12.784 163.213 12.24C163.426 11.6853 163.533 11.0827 163.533 10.432C163.533 9.77067 163.426 9.168 163.213 8.624C163.01 8.06933 162.722 7.58933 162.349 7.184C161.976 6.77867 161.528 6.464 161.005 6.24C160.493 6.016 159.933 5.904 159.325 5.904C158.717 5.904 158.152 6.016 157.629 6.24C157.117 6.464 156.674 6.77867 156.301 7.184C155.928 7.58933 155.64 8.06933 155.437 8.624C155.234 9.168 155.133 9.77067 155.133 10.432C155.133 11.0827 155.234 11.6853 155.437 12.24C155.64 12.784 155.928 13.2587 156.301 13.664C156.674 14.0693 157.117 14.384 157.629 14.608C158.152 14.8213 158.717 14.928 159.325 14.928ZM167.264 16V4.8H171.648C172.298 4.8 172.885 4.95467 173.408 5.264C173.941 5.56267 174.362 5.97333 174.672 6.496C174.981 7.01867 175.136 7.61067 175.136 8.272C175.136 8.89067 174.986 9.45067 174.688 9.952C174.389 10.4533 173.984 10.8533 173.472 11.152C172.96 11.44 172.384 11.584 171.744 11.584H168.512V16H167.264ZM174.096 16L171.28 11.072L172.48 10.656L175.584 16H174.096ZM168.512 10.368H171.856C172.25 10.368 172.597 10.2773 172.896 10.096C173.194 9.91467 173.429 9.66933 173.6 9.36C173.77 9.04 173.856 8.67733 173.856 8.272C173.856 7.83467 173.754 7.44533 173.552 7.104C173.349 6.76267 173.066 6.496 172.704 6.304C172.352 6.112 171.946 6.016 171.488 6.016H168.512V10.368Z" fill="#FAFAFA"/>
<line x1="189.134" y1="9.75" x2="326.197" y2="9.75" stroke="white" stroke-opacity="0.6" stroke-width="0.5"/>
</svg>
