<svg width="37" height="37" viewBox="0 0 37 37" fill="none" xmlns="http://www.w3.org/2000/svg">
<path fill-rule="evenodd" clip-rule="evenodd" d="M19.5075 22.5247C19.5075 22.2469 19.2821 22.0215 19.0044 22.0215H17.9981C17.7204 22.0215 17.495 22.2469 17.495 22.5247V23.5309C17.495 23.8086 17.7204 24.034 17.9981 24.034H19.0044C19.2821 24.034 19.5075 23.8086 19.5075 23.5309V22.5247Z" fill="#818181"/>
<path fill-rule="evenodd" clip-rule="evenodd" d="M19.5075 13.4673C19.5075 13.1893 19.2821 12.9636 19.0044 12.9636H17.9981C17.7204 12.9636 17.495 13.1893 17.495 13.4673V20.0079C17.495 20.2859 17.7204 20.5115 17.9981 20.5115H19.0044C19.2821 20.5115 19.5075 20.2859 19.5075 20.0079V13.4673Z" fill="#818181"/>
<path fill-rule="evenodd" clip-rule="evenodd" d="M26.3267 26.3267C22.0071 30.6462 14.9929 30.6462 10.6733 26.3267C6.3538 22.0071 6.3538 14.9929 10.6733 10.6733C14.9929 6.35381 22.0071 6.3538 26.3267 10.6733C29.7318 14.0784 30.4532 19.1579 28.4899 23.2721C28.2504 23.7737 28.4634 24.3744 28.9641 24.6139C29.4653 24.853 30.0669 24.6399 30.306 24.1387C32.6258 19.277 31.7741 13.2741 27.75 9.25001C22.6449 4.14494 14.3551 4.14494 9.25 9.25C4.14493 14.3551 4.14494 22.6449 9.25 27.75C14.3551 32.8551 22.6449 32.8551 27.75 27.75C28.1428 27.3572 28.1428 26.7194 27.75 26.3267C27.3572 25.9339 26.7194 25.9339 26.3267 26.3267Z" fill="#818181"/>
</svg>
