<svg width="314" height="296" viewBox="0 0 314 296" fill="none" xmlns="http://www.w3.org/2000/svg">
<path d="M313.328 283.05C313.328 285.593 243.188 287.655 156.668 287.655C70.1475 287.655 0 285.593 0 283.05C0 280.508 70.14 278.453 156.653 278.453C243.165 278.453 313.328 280.515 313.328 283.05Z" fill="#F5F5F5"/>
<path d="M292.013 28.32H20.8501V281.123H292.013V28.32Z" fill="#9855D9"/>
<path opacity="0.3" d="M292.013 28.32H20.8501V281.123H292.013V28.32Z" fill="white"/>
<path d="M176.925 63.5925H29.865V176.55H176.925V63.5925Z" fill="#9855D9"/>
<path d="M286.913 60.9825H186.383V281.122H286.913V60.9825Z" fill="#263238"/>
<path opacity="0.8" d="M176.925 63.5925H29.865V176.55H176.925V63.5925Z" fill="white"/>
<path d="M277.643 74.115H197.01V169.005H277.643V74.115Z" fill="#9855D9"/>
<path opacity="0.8" d="M277.643 74.115H197.01V169.005H277.643V74.115Z" fill="white"/>
<path opacity="0.6" d="M254.932 74.115L197.01 124.02V141.892L277.245 74.115H254.932Z" fill="white"/>
<path opacity="0.6" d="M277.65 85.545L197.01 154.162V162.765L277.65 95.22V85.545Z" fill="white"/>
<path opacity="0.6" d="M125.01 63.5925L30.3977 125.618V149.85L155.28 63.5925H125.01Z" fill="white"/>
<path opacity="0.6" d="M176.918 63.5925L29.865 166.283V176.55H31.89L177.015 76.065L176.918 63.5925Z" fill="white"/>
<path d="M206.34 185.265C206.34 186.263 206.044 187.239 205.489 188.069C204.935 188.899 204.147 189.546 203.224 189.928C202.302 190.31 201.287 190.41 200.308 190.216C199.329 190.021 198.429 189.54 197.723 188.834C197.018 188.128 196.537 187.229 196.342 186.25C196.147 185.271 196.247 184.256 196.629 183.333C197.011 182.411 197.658 181.623 198.488 181.068C199.318 180.514 200.294 180.218 201.293 180.218C202.631 180.218 203.915 180.749 204.862 181.696C205.808 182.643 206.34 183.926 206.34 185.265Z" fill="#9855D9"/>
<path d="M181.328 175.56H25.5525V184.875H181.328V175.56Z" fill="#263238"/>
<path opacity="0.3" d="M172.275 198.562H41.4375V258.21H172.275V198.562Z" stroke="white" stroke-width="0.75" stroke-miterlimit="10"/>
<path opacity="0.3" d="M165.218 204.983H48.7576V251.79H165.218V204.983Z" stroke="white" stroke-width="0.75" stroke-miterlimit="10"/>
<path d="M39.3826 0L9.84009 29.715H302.738L274.268 0H39.3826Z" fill="#9855D9"/>
<path d="M9.84009 29.715C9.84009 39.465 17.1451 47.3025 26.1451 47.3025C35.1451 47.3025 42.5176 39.4275 42.5176 29.715H9.84009Z" fill="#9855D9"/>
<path d="M42.5176 29.715C42.5176 39.465 49.8226 47.3025 58.8226 47.3025C67.8226 47.3025 75.1951 39.4275 75.1951 29.715H42.5176Z" fill="#9855D9"/>
<path d="M75.1951 29.715C75.1951 39.465 82.5001 47.3025 91.5001 47.3025C100.5 47.3025 107.873 39.4275 107.873 29.715H75.1951Z" fill="#9855D9"/>
<path d="M107.873 29.715C107.873 39.465 115.178 47.3025 124.185 47.3025C133.193 47.3025 140.49 39.4275 140.49 29.715H107.873Z" fill="#9855D9"/>
<path d="M140.55 29.715C140.55 39.465 147.855 47.3025 156.863 47.3025C165.87 47.3025 173.168 39.4275 173.168 29.715H140.55Z" fill="#9855D9"/>
<path d="M173.25 29.715C173.25 39.465 180.555 47.3025 189.563 47.3025C198.57 47.3025 205.867 39.4275 205.867 29.715H173.25Z" fill="#9855D9"/>
<path d="M205.913 29.715C205.913 39.465 213.21 47.3025 222.218 47.3025C231.225 47.3025 238.5 39.4275 238.5 29.715H205.913Z" fill="#9855D9"/>
<path d="M238.59 29.715C238.59 39.465 245.888 47.3025 254.895 47.3025C263.903 47.3025 270.353 39.4275 270.353 29.715H238.59Z" fill="#9855D9"/>
<path d="M270.968 29.715C270.968 39.465 278.273 47.3025 287.273 47.3025C296.273 47.3025 302.738 39.4275 302.738 29.715H270.968Z" fill="#9855D9"/>
<path opacity="0.5" d="M42.5176 29.715L58.8226 0H39.3826L9.84009 29.715H42.5176Z" fill="white"/>
<path opacity="0.5" d="M75.195 29.715C75.135 29.715 87.3525 0.00750732 87.3525 0.00750732H110.603L107.888 29.715H75.195Z" fill="white"/>
<path opacity="0.5" d="M164.31 0H138.36L140.55 29.715H173.228L164.31 0Z" fill="white"/>
<path opacity="0.5" d="M205.905 29.715L205.403 28.26L193.988 0H218.835L238.583 29.715" fill="white"/>
<path opacity="0.6" d="M9.84009 29.715C9.84009 39.465 17.1451 47.3025 26.1451 47.3025C35.1451 47.3025 42.5176 39.4275 42.5176 29.715H9.84009Z" fill="white"/>
<path opacity="0.6" d="M75.1951 29.715C75.1951 39.465 82.5001 47.3025 91.5001 47.3025C100.5 47.3025 107.873 39.4275 107.873 29.715H75.1951Z" fill="white"/>
<path opacity="0.6" d="M140.55 29.715C140.55 39.465 147.855 47.3025 156.863 47.3025C165.87 47.3025 173.168 39.4275 173.168 29.715H140.55Z" fill="white"/>
<path opacity="0.6" d="M205.913 29.715C205.913 39.465 213.21 47.3025 222.218 47.3025C231.225 47.3025 238.5 39.4275 238.5 29.715H205.913Z" fill="white"/>
<path opacity="0.5" d="M270.968 29.715L248.625 0H274.268L302.738 29.715H270.968Z" fill="white"/>
<path opacity="0.6" d="M270.968 29.715C270.968 39.465 278.273 47.3025 287.273 47.3025C296.273 47.3025 302.738 39.4275 302.738 29.715H270.968Z" fill="white"/>
<path d="M212.468 110.7L237.33 86.22L261.225 110.7" stroke="#263238" stroke-width="0.75" stroke-miterlimit="10"/>
<path d="M263.355 110.153H209.925V141.638H263.355V110.153Z" fill="#9855D9"/>
<path d="M260.198 113.408H213.052V138.39H260.198V113.408Z" fill="#263238"/>
<path d="M223.134 124.701H222.19C222.134 124.43 222.036 124.191 221.897 123.986C221.76 123.78 221.592 123.608 221.394 123.468C221.199 123.326 220.982 123.219 220.743 123.148C220.505 123.077 220.256 123.042 219.997 123.042C219.526 123.042 219.098 123.161 218.715 123.4C218.334 123.638 218.031 123.99 217.805 124.454C217.582 124.918 217.47 125.488 217.47 126.163C217.47 126.838 217.582 127.407 217.805 127.872C218.031 128.336 218.334 128.687 218.715 128.926C219.098 129.164 219.526 129.284 219.997 129.284C220.256 129.284 220.505 129.248 220.743 129.177C220.982 129.106 221.199 129.001 221.394 128.861C221.592 128.719 221.76 128.545 221.897 128.34C222.036 128.132 222.134 127.893 222.19 127.624H223.134C223.062 128.023 222.933 128.379 222.745 128.694C222.558 129.008 222.324 129.276 222.045 129.497C221.766 129.715 221.453 129.881 221.105 129.995C220.76 130.109 220.391 130.167 219.997 130.167C219.333 130.167 218.741 130.004 218.224 129.679C217.706 129.355 217.299 128.893 217.002 128.294C216.705 127.695 216.557 126.985 216.557 126.163C216.557 125.341 216.705 124.63 217.002 124.031C217.299 123.433 217.706 122.971 218.224 122.646C218.741 122.321 219.333 122.159 219.997 122.159C220.391 122.159 220.76 122.216 221.105 122.33C221.453 122.444 221.766 122.612 222.045 122.833C222.324 123.051 222.558 123.317 222.745 123.632C222.933 123.944 223.062 124.3 223.134 124.701ZM224.659 130.06V122.265H225.603V129.223H229.226V130.06H224.659ZM236.96 126.163C236.96 126.985 236.812 127.695 236.515 128.294C236.218 128.893 235.811 129.355 235.293 129.679C234.776 130.004 234.185 130.167 233.52 130.167C232.855 130.167 232.264 130.004 231.746 129.679C231.229 129.355 230.822 128.893 230.525 128.294C230.228 127.695 230.079 126.985 230.079 126.163C230.079 125.341 230.228 124.63 230.525 124.031C230.822 123.433 231.229 122.971 231.746 122.646C232.264 122.321 232.855 122.159 233.52 122.159C234.185 122.159 234.776 122.321 235.293 122.646C235.811 122.971 236.218 123.433 236.515 124.031C236.812 124.63 236.96 125.341 236.96 126.163ZM236.047 126.163C236.047 125.488 235.934 124.918 235.708 124.454C235.485 123.99 235.182 123.638 234.799 123.4C234.418 123.161 233.992 123.042 233.52 123.042C233.048 123.042 232.62 123.161 232.237 123.4C231.857 123.638 231.554 123.99 231.328 124.454C231.104 124.918 230.993 125.488 230.993 126.163C230.993 126.838 231.104 127.407 231.328 127.872C231.554 128.336 231.857 128.687 232.237 128.926C232.62 129.164 233.048 129.284 233.52 129.284C233.992 129.284 234.418 129.164 234.799 128.926C235.182 128.687 235.485 128.336 235.708 127.872C235.934 127.407 236.047 126.838 236.047 126.163ZM242.81 124.214C242.765 123.828 242.579 123.529 242.255 123.316C241.93 123.103 241.531 122.996 241.059 122.996C240.714 122.996 240.412 123.052 240.154 123.164C239.897 123.275 239.697 123.429 239.552 123.624C239.41 123.82 239.339 124.042 239.339 124.29C239.339 124.498 239.389 124.677 239.488 124.827C239.589 124.974 239.719 125.097 239.876 125.196C240.033 125.292 240.198 125.372 240.371 125.436C240.543 125.497 240.702 125.546 240.846 125.584L241.638 125.797C241.841 125.851 242.067 125.924 242.315 126.018C242.567 126.112 242.806 126.24 243.035 126.402C243.266 126.562 243.456 126.768 243.606 127.019C243.755 127.27 243.83 127.579 243.83 127.944C243.83 128.365 243.72 128.746 243.499 129.086C243.281 129.426 242.961 129.696 242.54 129.896C242.121 130.097 241.613 130.197 241.014 130.197C240.456 130.197 239.972 130.107 239.564 129.927C239.158 129.747 238.838 129.495 238.605 129.173C238.374 128.851 238.243 128.477 238.213 128.05H239.187C239.212 128.345 239.311 128.588 239.484 128.781C239.659 128.972 239.88 129.114 240.146 129.207C240.415 129.299 240.704 129.344 241.014 129.344C241.374 129.344 241.698 129.286 241.984 129.169C242.271 129.05 242.498 128.885 242.666 128.675C242.833 128.462 242.917 128.213 242.917 127.929C242.917 127.67 242.844 127.459 242.7 127.297C242.555 127.135 242.365 127.003 242.129 126.901C241.893 126.8 241.638 126.711 241.364 126.635L240.405 126.361C239.796 126.186 239.314 125.936 238.959 125.611C238.603 125.286 238.426 124.861 238.426 124.336C238.426 123.899 238.544 123.519 238.78 123.194C239.018 122.867 239.338 122.613 239.739 122.433C240.142 122.25 240.593 122.159 241.09 122.159C241.592 122.159 242.039 122.249 242.43 122.429C242.82 122.607 243.13 122.85 243.358 123.16C243.589 123.469 243.711 123.821 243.724 124.214H242.81ZM245.382 130.06V122.265H250.086V123.103H246.326V125.736H249.843V126.574H246.326V129.223H250.147V130.06H245.382ZM254.193 130.06H251.787V122.265H254.299C255.055 122.265 255.702 122.421 256.24 122.734C256.778 123.043 257.191 123.488 257.477 124.069C257.764 124.648 257.907 125.341 257.907 126.148C257.907 126.959 257.763 127.658 257.473 128.245C257.184 128.828 256.763 129.277 256.21 129.592C255.657 129.904 254.984 130.06 254.193 130.06ZM252.731 129.223H254.132C254.776 129.223 255.31 129.098 255.734 128.85C256.158 128.601 256.474 128.247 256.682 127.788C256.89 127.329 256.994 126.782 256.994 126.148C256.994 125.518 256.891 124.977 256.686 124.522C256.48 124.066 256.173 123.716 255.765 123.472C255.356 123.226 254.847 123.103 254.238 123.103H252.731V129.223Z" fill="white"/>
<path d="M117.645 294.405L103.065 199.523H58.29L62.745 294.405H68.34L67.8375 282.96L110.048 282.93L112.095 294.405H117.645Z" fill="#9855D9"/>
<path opacity="0.5" d="M117.645 294.405L103.065 199.523H58.29L62.745 294.405H68.34L67.8375 282.96L110.048 282.93L112.095 294.405H117.645Z" fill="black"/>
<path d="M86.2649 294.405L103.065 199.523H48.1574L32.6174 294.405H38.8799L40.6349 282.615L82.2524 283.148L80.4974 294.405H86.2649Z" fill="#9855D9"/>
<path d="M84.015 274.305L95.5425 205.958H52.6725L41.1375 274.305H84.015Z" fill="#263238"/>
<path opacity="0.3" d="M42.9524 274.305L54.2475 207.765H95.235L95.5425 205.958H52.6725L41.1375 274.305H42.9524Z" fill="black"/>
<path d="M61.5336 232.67L58.6039 221.956H59.9223L62.1614 230.682H62.266L64.547 221.956H66.0118L68.2928 230.682H68.3974L70.6365 221.956H71.9549L69.0252 232.67H67.6859L65.3213 224.132H65.2376L62.8729 232.67H61.5336ZM73.5715 232.67V221.956H80.0377V223.107H74.8689V226.727H79.7029V227.878H74.8689V231.519H80.1214V232.67H73.5715Z" fill="white"/>
<path d="M61.4319 243.02H60.6746L62.8649 237.055H63.6106L65.801 243.02H65.0437L63.2611 237.998H63.2145L61.4319 243.02ZM61.7115 240.69H64.764V241.331H61.7115V240.69ZM66.7301 243.02V237.055H68.7458C69.2118 237.055 69.5943 237.134 69.8934 237.294C70.1924 237.451 70.4138 237.667 70.5575 237.943C70.7012 238.219 70.773 238.532 70.773 238.884C70.773 239.235 70.7012 239.547 70.5575 239.819C70.4138 240.091 70.1934 240.304 69.8963 240.46C69.5992 240.613 69.2196 240.69 68.7574 240.69H67.1263V240.037H68.7341C69.0526 240.037 69.3089 239.991 69.5031 239.898C69.6992 239.804 69.841 239.672 69.9283 239.501C70.0177 239.329 70.0623 239.123 70.0623 238.884C70.0623 238.645 70.0177 238.436 69.9283 238.258C69.839 238.079 69.6963 237.941 69.5002 237.844C69.304 237.745 69.0448 237.696 68.7225 237.696H67.4525V243.02H66.7301ZM69.538 240.34L71.006 243.02H70.1672L68.7225 240.34H69.538ZM71.9767 243.02V237.055H75.5769V237.696H72.6991V239.711H75.3904V240.352H72.6991V242.379H75.6235V243.02H71.9767Z" fill="white"/>
<path d="M55.214 249.495H54.395C54.3466 249.259 54.2618 249.052 54.1407 248.874C54.0218 248.696 53.8765 248.546 53.7048 248.425C53.5352 248.302 53.347 248.209 53.14 248.148C52.9331 248.086 52.7173 248.055 52.4927 248.055C52.0832 248.055 51.7122 248.159 51.3798 248.366C51.0495 248.573 50.7864 248.877 50.5905 249.28C50.3967 249.683 50.2998 250.178 50.2998 250.763C50.2998 251.349 50.3967 251.843 50.5905 252.246C50.7864 252.649 51.0495 252.954 51.3798 253.161C51.7122 253.368 52.0832 253.471 52.4927 253.471C52.7173 253.471 52.9331 253.44 53.14 253.379C53.347 253.317 53.5352 253.226 53.7048 253.105C53.8765 252.981 54.0218 252.831 54.1407 252.652C54.2618 252.472 54.3466 252.265 54.395 252.031H55.214C55.1524 252.377 55.0401 252.686 54.8772 252.959C54.7143 253.232 54.5117 253.465 54.2695 253.656C54.0273 253.846 53.7554 253.99 53.4538 254.089C53.1543 254.188 52.834 254.237 52.4927 254.237C51.9159 254.237 51.4029 254.097 50.9537 253.815C50.5046 253.533 50.1512 253.132 49.8936 252.613C49.636 252.093 49.5072 251.477 49.5072 250.763C49.5072 250.05 49.636 249.433 49.8936 248.914C50.1512 248.394 50.5046 247.993 50.9537 247.712C51.4029 247.43 51.9159 247.289 52.4927 247.289C52.834 247.289 53.1543 247.338 53.4538 247.438C53.7554 247.537 54.0273 247.682 54.2695 247.873C54.5117 248.063 54.7143 248.294 54.8772 248.567C55.0401 248.838 55.1524 249.147 55.214 249.495ZM56.5375 254.145V247.381H57.3566V253.418H60.5006V254.145H56.5375ZM67.2122 250.763C67.2122 251.477 67.0834 252.093 66.8258 252.613C66.5682 253.132 66.2149 253.533 65.7657 253.815C65.3166 254.097 64.8036 254.237 64.2267 254.237C63.6499 254.237 63.1369 254.097 62.6877 253.815C62.2386 253.533 61.8852 253.132 61.6276 252.613C61.37 252.093 61.2412 251.477 61.2412 250.763C61.2412 250.05 61.37 249.433 61.6276 248.914C61.8852 248.394 62.2386 247.993 62.6877 247.712C63.1369 247.43 63.6499 247.289 64.2267 247.289C64.8036 247.289 65.3166 247.43 65.7657 247.712C66.2149 247.993 66.5682 248.394 66.8258 248.914C67.0834 249.433 67.2122 250.05 67.2122 250.763ZM66.4196 250.763C66.4196 250.178 66.3216 249.683 66.1257 249.28C65.9319 248.877 65.6688 248.573 65.3364 248.366C65.0061 248.159 64.6362 248.055 64.2267 248.055C63.8172 248.055 63.4462 248.159 63.1138 248.366C62.7835 248.573 62.5204 248.877 62.3244 249.28C62.1307 249.683 62.0338 250.178 62.0338 250.763C62.0338 251.349 62.1307 251.843 62.3244 252.246C62.5204 252.649 62.7835 252.954 63.1138 253.161C63.4462 253.368 63.8172 253.471 64.2267 253.471C64.6362 253.471 65.0061 253.368 65.3364 253.161C65.6688 252.954 65.9319 252.649 66.1257 252.246C66.3216 251.843 66.4196 251.349 66.4196 250.763ZM72.2883 249.072C72.2486 248.738 72.0879 248.478 71.8061 248.293C71.5243 248.108 71.1786 248.015 70.7691 248.015C70.4697 248.015 70.2076 248.064 69.9831 248.161C69.7607 248.258 69.5868 248.391 69.4613 248.56C69.338 248.73 69.2763 248.923 69.2763 249.138C69.2763 249.319 69.3193 249.474 69.4051 249.604C69.4932 249.732 69.6055 249.838 69.742 249.924C69.8785 250.008 70.0216 250.077 70.1713 250.132C70.321 250.185 70.4586 250.228 70.5841 250.261L71.2711 250.446C71.4472 250.492 71.6432 250.556 71.8589 250.638C72.0769 250.719 72.285 250.83 72.4831 250.971C72.6835 251.11 72.8486 251.288 72.9785 251.506C73.1084 251.724 73.1733 251.992 73.1733 252.309C73.1733 252.674 73.0776 253.005 72.886 253.3C72.6967 253.595 72.4193 253.829 72.0538 254.003C71.6905 254.177 71.2491 254.264 70.7295 254.264C70.2451 254.264 69.8257 254.186 69.4712 254.029C69.1189 253.873 68.8415 253.655 68.6389 253.376C68.4386 253.096 68.3252 252.771 68.2988 252.401H69.1442C69.1662 252.657 69.2521 252.868 69.4018 253.035C69.5537 253.2 69.7453 253.324 69.9765 253.405C70.2098 253.485 70.4608 253.524 70.7295 253.524C71.0421 253.524 71.3228 253.473 71.5716 253.372C71.8204 253.269 72.0174 253.126 72.1628 252.943C72.3081 252.758 72.3807 252.542 72.3807 252.296C72.3807 252.071 72.318 251.888 72.1925 251.747C72.067 251.606 71.9019 251.492 71.6971 251.404C71.4923 251.316 71.2711 251.239 71.0333 251.173L70.201 250.935C69.6726 250.783 69.2543 250.566 68.9461 250.284C68.6378 250.003 68.4837 249.634 68.4837 249.178C68.4837 248.799 68.5861 248.469 68.7909 248.187C68.9978 247.903 69.2752 247.683 69.6231 247.527C69.9732 247.368 70.364 247.289 70.7955 247.289C71.2314 247.289 71.6189 247.367 71.958 247.523C72.2971 247.678 72.5657 247.889 72.7638 248.157C72.9642 248.426 73.0699 248.731 73.0809 249.072H72.2883ZM74.52 254.145V247.381H78.6019V248.108H75.339V250.393H78.3906V251.12H75.339V253.418H78.6548V254.145H74.52ZM82.1654 254.145H80.0782V247.381H82.2579C82.914 247.381 83.4754 247.517 83.9422 247.788C84.4089 248.056 84.7667 248.443 85.0155 248.947C85.2643 249.449 85.3887 250.05 85.3887 250.75C85.3887 251.455 85.2632 252.061 85.0122 252.57C84.7612 253.076 84.3957 253.466 83.9157 253.739C83.4358 254.01 82.8523 254.145 82.1654 254.145ZM80.8972 253.418H82.1125C82.6718 253.418 83.1352 253.311 83.5029 253.095C83.8706 252.879 84.1447 252.572 84.3253 252.173C84.5058 251.775 84.5961 251.3 84.5961 250.75C84.5961 250.204 84.5069 249.734 84.3286 249.34C84.1502 248.943 83.8838 248.64 83.5293 248.428C83.1749 248.215 82.7334 248.108 82.205 248.108H80.8972V253.418Z" fill="white"/>
<g opacity="0.3">
<path d="M66.9751 218.04C65.8801 215.725 64.7826 213.405 63.6826 211.08C63.3751 210.428 62.4076 210.998 62.7151 211.65C63.8101 213.965 64.9076 216.285 66.0076 218.61C66.3151 219.263 67.2901 218.693 66.9751 218.04Z" fill="white"/>
</g>
<g opacity="0.3">
<path d="M71.9999 218.858C72.4049 216.263 72.8074 213.665 73.2074 211.065C73.3199 210.36 72.2399 210.053 72.1274 210.773L70.9124 218.558C70.7999 219.263 71.8874 219.57 71.9999 218.858Z" fill="white"/>
</g>
<g opacity="0.3">
<path d="M75.1199 219.81C77.2248 217.033 79.5796 214.455 82.1549 212.108C82.6874 211.62 81.8924 210.825 81.3524 211.313C78.7172 213.734 76.305 216.387 74.1449 219.24C73.7099 219.818 74.6849 220.38 75.1199 219.81Z" fill="white"/>
</g>
<g opacity="0.3">
<path d="M60.09 261.293C57.9582 263.459 55.9548 265.748 54.09 268.148C53.6475 268.71 54.4425 269.513 54.885 268.943C56.7498 266.543 58.7532 264.254 60.885 262.088C61.395 261.57 60.6 260.775 60.09 261.293Z" fill="white"/>
</g>
<g opacity="0.3">
<path d="M64.1025 261.39C63.563 264.484 63.4043 267.632 63.63 270.765C63.6825 271.478 64.8075 271.515 64.755 270.765C64.5292 267.734 64.6728 264.686 65.1825 261.69C65.31 260.978 64.2225 260.678 64.1025 261.39Z" fill="white"/>
</g>
<g opacity="0.3">
<path d="M68.8353 262.103C70.0568 264.422 71.4824 266.628 73.0953 268.695C73.5228 269.273 74.4978 268.695 74.0628 268.133C72.4533 266.064 71.0278 263.858 69.8028 261.54C69.4803 260.895 68.5053 261.458 68.8353 262.103Z" fill="white"/>
</g>
<path d="M138.502 116.393L124.5 127.71L122.512 109.508H117.51C117.51 109.508 116.962 127.807 116.88 130.087C116.799 132.173 117.136 134.254 117.87 136.208C118.145 136.897 118.569 137.517 119.111 138.023C119.654 138.53 120.302 138.91 121.009 139.136C121.715 139.363 122.464 139.43 123.199 139.333C123.935 139.237 124.641 138.979 125.265 138.578L142.065 127.913L145.597 113.385L142.83 114.052C141.255 114.558 139.788 115.351 138.502 116.393Z" fill="#B97964"/>
<path d="M122.557 110.055C123.485 109.233 124.1 108.114 124.297 106.89C124.417 105.128 124.98 103.74 124.972 102.428C124.965 101.115 123.81 102.428 123.345 103.305C122.88 104.183 122.332 105.105 121.755 104.655C121.177 104.205 118.845 98.34 118.005 97.8075C117.165 97.275 117.217 98.3325 117.217 98.3325C117.217 98.3325 116.617 96.93 115.987 97.02C115.83 97.02 115.492 97.3575 115.665 98.0475C116.062 99.5475 117.052 102.78 117.052 102.78C117 102.593 115.492 98.745 115.192 98.1975C114.795 97.485 114.247 97.35 113.842 97.5975C113.257 97.9425 114.967 102.78 114.9 103.035C114.9 103.035 114.007 100.215 113.152 100.035C112.297 99.855 112.762 101.678 113.475 103.193C114.127 104.58 115.042 107.468 115.845 108.818C116.827 110.475 117.862 111.36 119.662 111.15C120.705 111.036 121.701 110.659 122.557 110.055Z" fill="#B97964"/>
<path opacity="0.2" d="M124.5 127.71C124.702 128.7 124.702 129.72 124.5 130.71C124.5 130.71 126.682 128.828 126.127 126.398L124.5 127.71Z" fill="black"/>
<path opacity="0.2" d="M117.157 98.295C117.799 99.4694 118.38 100.676 118.897 101.91" stroke="black" stroke-width="0.375" stroke-linecap="round" stroke-linejoin="round"/>
<path opacity="0.2" d="M115.845 104.678C116.887 103.878 118.042 103.239 119.272 102.78" stroke="black" stroke-width="0.375" stroke-linecap="round" stroke-linejoin="round"/>
<path d="M176.603 288.615L170.123 289.253L166.583 272.708L176.603 271.77V288.615Z" fill="#B97964"/>
<path d="M169.185 286.395H171.503C171.76 286.397 172.013 286.46 172.241 286.579C172.469 286.697 172.666 286.868 172.815 287.078C174.15 288.9 175.155 288.21 176.603 286.5C177.525 286.395 177.773 287.453 177.848 287.738L179.58 294.03C179.652 294.282 179.621 294.551 179.495 294.781C179.368 295.01 179.156 295.179 178.905 295.253C178.809 295.276 178.711 295.289 178.613 295.29H160.29C157.373 295.29 156.765 292.35 157.965 292.08C163.365 290.888 167.19 289.298 168.863 287.723C169.17 287.453 168.848 287.22 169.185 286.395Z" fill="#263238"/>
<path d="M165.75 288.54C166.481 288.521 167.207 288.425 167.918 288.255C167.95 288.243 167.976 288.219 167.992 288.189C168.007 288.158 168.01 288.123 168 288.09C167.982 288.056 167.953 288.03 167.918 288.015C167.595 287.858 164.708 286.515 163.98 287.018C163.914 287.062 163.861 287.124 163.827 287.197C163.794 287.27 163.782 287.351 163.793 287.43C163.795 287.577 163.831 287.721 163.898 287.852C163.966 287.982 164.064 288.094 164.183 288.18C164.654 288.462 165.203 288.588 165.75 288.54ZM167.468 288.083C166.613 288.24 165.03 288.45 164.37 287.963C164.287 287.894 164.219 287.81 164.17 287.714C164.121 287.619 164.092 287.515 164.085 287.408C164.078 287.375 164.081 287.34 164.094 287.309C164.108 287.278 164.131 287.252 164.16 287.235C164.543 286.958 166.253 287.558 167.453 288.083H167.468Z" fill="#9855D9"/>
<path d="M167.873 288.263H168C168.021 288.248 168.037 288.227 168.045 288.202C168.053 288.178 168.053 288.152 168.045 288.128C168.045 288.008 167.363 285.128 165.795 285.345C165.405 285.398 165.293 285.585 165.278 285.743C165.18 286.493 167.003 287.925 167.865 288.285L167.873 288.263ZM165.9 285.57C166.905 285.57 167.483 287.228 167.678 287.895C166.733 287.393 165.428 286.208 165.495 285.75C165.495 285.713 165.495 285.608 165.795 285.578L165.9 285.57Z" fill="#9855D9"/>
<path d="M167.58 288.18C167.979 288.237 168.361 288.379 168.7 288.596C169.039 288.813 169.327 289.101 169.545 289.44" stroke="#9855D9" stroke-width="0.375" stroke-linecap="round" stroke-linejoin="round"/>
<path d="M166.147 289.26C166.546 289.318 166.927 289.461 167.265 289.68C167.602 289.899 167.889 290.188 168.105 290.528" stroke="#9855D9" stroke-width="0.375" stroke-linecap="round" stroke-linejoin="round"/>
<path d="M164.355 290.168C164.754 290.226 165.136 290.369 165.475 290.587C165.814 290.806 166.103 291.095 166.32 291.435" stroke="#9855D9" stroke-width="0.375" stroke-linecap="round" stroke-linejoin="round"/>
<path d="M145.2 288.113L138.72 288.75L135.72 272.153L144.93 271.148L145.2 288.113Z" fill="#B97964"/>
<path d="M137.79 285.893H140.1C140.358 285.896 140.611 285.959 140.841 286.078C141.07 286.196 141.268 286.366 141.42 286.575C142.747 288.398 143.752 287.708 145.207 285.998C146.13 285.893 146.377 286.95 146.452 287.235L148.177 293.528C148.249 293.779 148.219 294.049 148.092 294.278C147.966 294.507 147.754 294.677 147.502 294.75C147.405 294.761 147.307 294.761 147.21 294.75H128.887C125.97 294.75 125.37 291.81 126.57 291.54C131.97 290.348 135.787 288.758 137.46 287.183C137.767 286.95 137.452 286.74 137.79 285.893Z" fill="#263238"/>
<path d="M134.34 288.038C135.07 288.018 135.797 287.922 136.507 287.753C136.523 287.747 136.538 287.738 136.55 287.726C136.562 287.715 136.572 287.701 136.579 287.686C136.586 287.67 136.59 287.654 136.591 287.637C136.591 287.62 136.588 287.603 136.582 287.588C136.565 287.556 136.539 287.529 136.507 287.513C136.177 287.355 133.29 286.013 132.562 286.515C132.496 286.559 132.443 286.621 132.409 286.694C132.376 286.767 132.364 286.848 132.375 286.928C132.376 287.074 132.412 287.219 132.48 287.349C132.547 287.48 132.645 287.592 132.765 287.678C133.238 287.963 133.79 288.089 134.34 288.038ZM136.05 287.58C135.195 287.738 133.612 287.955 132.952 287.46C132.87 287.393 132.803 287.309 132.754 287.215C132.705 287.121 132.675 287.018 132.667 286.913C132.66 286.878 132.664 286.843 132.677 286.811C132.69 286.779 132.713 286.751 132.742 286.733C133.147 286.47 134.85 287.055 136.05 287.58Z" fill="#9855D9"/>
<path d="M136.5 287.76C136.514 287.767 136.529 287.771 136.545 287.771C136.56 287.771 136.576 287.767 136.59 287.76C136.602 287.74 136.609 287.716 136.609 287.693C136.609 287.669 136.602 287.645 136.59 287.625C136.59 287.505 135.907 284.625 134.34 284.843C133.942 284.895 133.83 285.083 133.815 285.24C133.717 285.99 135.54 287.423 136.41 287.783L136.5 287.76ZM134.52 285.068C135.525 285.068 136.102 286.725 136.297 287.393C135.36 286.898 134.047 285.705 134.115 285.248C134.115 285.21 134.115 285.105 134.415 285.075L134.52 285.068Z" fill="#9855D9"/>
<path d="M136.177 287.678C136.578 287.733 136.961 287.875 137.3 288.094C137.639 288.313 137.927 288.604 138.142 288.945" stroke="#9855D9" stroke-width="0.375" stroke-linecap="round" stroke-linejoin="round"/>
<path d="M134.745 288.758C135.144 288.815 135.526 288.959 135.865 289.177C136.204 289.396 136.492 289.685 136.71 290.025" stroke="#9855D9" stroke-width="0.375" stroke-linecap="round" stroke-linejoin="round"/>
<path d="M132.952 289.665C133.352 289.723 133.734 289.866 134.073 290.085C134.412 290.304 134.7 290.593 134.917 290.933" stroke="#9855D9" stroke-width="0.375" stroke-linecap="round" stroke-linejoin="round"/>
<path d="M134.782 165.323C134.317 166.71 129.082 211.028 129.142 220.59C129.195 228.33 135.187 280.538 135.187 280.538L146.437 280.14C146.437 280.14 145.86 254.37 146.182 245.423C146.505 236.475 144.36 219.668 144.36 219.668L157.86 179.318L157.35 165.78L134.782 165.323Z" fill="#263238"/>
<path d="M175.08 224.865C174.787 223.568 174.33 220.95 173.73 217.493H173.79C173.362 212.918 174.832 189.218 173.385 175.688C172.267 167.063 170.212 162.48 167.992 159.623L167.677 159.225C167.31 158.768 167.085 158.513 167.085 158.513L165.832 158.805L165.36 158.903C155.75 160.831 145.812 160.339 136.44 157.47C135 161.033 134.19 169.868 133.162 177.72C134.797 179.52 141.172 181.185 149.422 182.73L151.777 193.373C153.015 199.965 154.605 206.438 155.947 212.265L157.365 218.648L157.612 219.885C158.362 223.553 166.372 281.678 166.372 281.678L177.825 281.858C177.825 281.858 179.092 242.348 175.08 224.865Z" fill="#263238"/>
<path opacity="0.2" d="M135.075 161.22C139.039 165.05 144.33 167.2 149.842 167.22C159.165 167.31 169.627 161.88 169.627 161.88L168.457 159.87L141.6 162.795L136.08 159.87L135.075 161.22Z" fill="black"/>
<path opacity="0.2" d="M152.288 196.035C152.333 196.253 146.985 175.492 146.985 175.492C146.985 175.492 142.89 194.295 149.415 204.63L152.288 196.035Z" fill="black"/>
<path d="M143.25 113.115C137.445 116.115 130.02 122.408 130.02 122.408L136.62 134.093C136.62 134.093 150.218 124.823 148.785 121.403C147.315 117.84 147.248 112.47 143.25 113.115Z" fill="#263238"/>
<g opacity="0.3">
<path d="M140.063 120.503C139.434 121.561 138.949 122.698 138.623 123.885C138.189 125.654 137.916 127.459 137.805 129.278L140.265 129.99C140.168 126.72 140.153 123.788 140.063 120.503Z" fill="black"/>
</g>
<path d="M172.237 130.298L175.905 116.888C173.347 113.063 161.047 109.725 161.047 109.725L152.692 110.183C152.692 110.183 149.482 110.933 146.692 111.795C143.025 112.988 141.037 113.955 140.167 115.988C140.167 115.988 138.667 120.488 139.552 129.795C139.807 132.353 139.552 145.643 138.802 150.045L135.052 161.198C150.315 173.085 169.297 160.403 169.297 160.403C168.64 158.285 168.153 156.118 167.842 153.923C168.067 151.305 167.752 147.27 168.862 142.673C169.102 141.788 171.862 131.16 172.237 130.298Z" fill="#263238"/>
<path opacity="0.3" d="M170.947 134.093C170.947 134.093 165.097 126.72 166.095 123.653L172.095 129.285L170.947 134.093Z" fill="black"/>
<path d="M169.867 116.648C170.242 116.903 173.152 115.44 176.385 119.43C179.28 123.015 193.08 137.228 192.63 142.215C192.225 146.67 173.43 160.778 173.43 160.778L170.325 156.48L182.61 141.293L171 130.77L169.867 116.648Z" fill="#B97964"/>
<path d="M173.52 115.17C176.827 115.92 182.61 124.373 182.61 124.373L172.402 132.825C172.402 132.825 166.027 125.28 166.567 120.96C167.025 117.315 169.327 114.24 173.52 115.17Z" fill="#263238"/>
<path d="M139.08 125.498C139.075 125.362 139.098 125.227 139.147 125.1C139.196 124.974 139.271 124.859 139.367 124.762C139.462 124.666 139.577 124.59 139.703 124.54C139.829 124.49 139.964 124.466 140.1 124.47C144.713 124.59 163.013 124.47 163.793 125.715C164.685 127.11 163.32 145.08 164.85 146.805C165.251 147.302 165.764 147.696 166.347 147.957C166.929 148.218 167.565 148.337 168.203 148.305L168.105 152.28C168.105 152.28 166.478 151.605 165.983 153.03C165.488 154.455 170.04 217.245 166.68 218.385C163.32 219.525 130.68 221.955 128.543 218.385C126.405 214.815 131.888 170.385 133.793 161.093C135.698 151.8 137.37 145.538 138.383 140.933C139.395 136.328 139.178 128.355 139.08 125.498Z" fill="#9855D9"/>
<path d="M141.128 129.99C141.128 129.99 143.168 114.315 144.27 112.673C145.373 111.03 149.003 110.708 149.003 110.708C147.897 111.728 147.115 113.05 146.753 114.51C146.108 117.015 144.368 130.703 144.368 130.703L141.128 129.99Z" fill="#9855D9"/>
<path d="M157.208 128.873C157.208 128.873 160.343 111.9 164.708 110.708L168 111.795C163.537 116.608 161.061 122.932 161.07 129.495L157.208 128.873Z" fill="#9855D9"/>
<path opacity="0.3" d="M136.748 168.308C136.748 168.308 152.31 169.568 158.715 168.308C158.715 168.308 159.345 181.583 156.54 183.983C153.338 186.735 137.43 188.108 136.733 180.668C136.475 176.551 136.48 172.423 136.748 168.308Z" fill="black"/>
<path opacity="0.3" d="M143.888 125.82C143.888 125.934 143.854 126.046 143.79 126.141C143.727 126.236 143.637 126.31 143.531 126.354C143.426 126.397 143.31 126.409 143.197 126.386C143.085 126.364 142.983 126.309 142.902 126.228C142.821 126.148 142.766 126.045 142.744 125.933C142.721 125.821 142.733 125.705 142.777 125.599C142.82 125.494 142.894 125.403 142.989 125.34C143.084 125.276 143.196 125.243 143.31 125.243C143.463 125.243 143.61 125.303 143.719 125.412C143.827 125.52 143.888 125.667 143.888 125.82Z" fill="black"/>
<path opacity="0.3" d="M160.32 125.82C160.304 125.961 160.237 126.091 160.131 126.185C160.025 126.28 159.888 126.332 159.746 126.332C159.605 126.332 159.468 126.28 159.362 126.185C159.256 126.091 159.189 125.961 159.173 125.82C159.163 125.739 159.171 125.657 159.196 125.58C159.221 125.502 159.261 125.431 159.315 125.37C159.37 125.309 159.436 125.261 159.51 125.227C159.585 125.194 159.665 125.177 159.746 125.177C159.828 125.177 159.908 125.194 159.983 125.227C160.057 125.261 160.123 125.309 160.177 125.37C160.232 125.431 160.272 125.502 160.297 125.58C160.322 125.657 160.329 125.739 160.32 125.82Z" fill="black"/>
<path d="M180.592 107.61C179.974 106.88 179.207 106.289 178.342 105.878C175.252 103.928 173.49 100.673 172.582 97.3875C171.675 94.1025 171.517 90.69 170.887 87.36C170.689 85.8102 170.115 84.3324 169.215 83.055C168.225 81.81 165.165 79.8225 162.982 82.68V87.54C162.12 89.835 162.232 92.325 162.54 94.7325C162.847 97.14 161.175 93.4275 161.04 95.8425C160.965 97.2975 161.04 103.838 161.04 105.293C161.04 106.748 163.02 109.26 163.935 110.46C165.075 111.96 167.085 112.785 169.087 113.153C171.693 113.618 174.373 113.453 176.902 112.673C178.117 112.362 179.226 111.73 180.112 110.843C180.529 110.427 180.801 109.888 180.888 109.306C180.974 108.723 180.871 108.129 180.592 107.61Z" fill="#263238"/>
<path d="M163.042 82.2975C163.676 82.4522 164.263 82.7553 164.756 83.1817C165.249 83.6081 165.633 84.1457 165.877 84.75C166.261 85.5361 166.399 86.4193 166.275 87.285C166.208 87.7149 166.042 88.1233 165.789 88.4775C165.537 88.8317 165.205 89.122 164.82 89.325C164.43 89.5165 163.989 89.5812 163.56 89.5099C163.131 89.4386 162.735 89.235 162.427 88.9275C162.185 88.6121 162.018 88.2451 161.94 87.8549C161.862 87.4648 161.875 87.0619 161.977 86.6775C162.179 85.9121 162.429 85.1606 162.727 84.4275C163.031 83.6949 163.081 82.8818 162.87 82.1175" fill="#9855D9"/>
<path d="M162.997 110.258C162.997 110.258 160.41 112.245 157.072 115.125C156.382 115.722 155.627 116.24 154.822 116.67C152.632 117.833 151.687 117.533 151.155 116.475C150.975 116.102 150.824 115.716 150.705 115.32C150.247 113.558 149.55 112.448 150.975 111.315C152.587 110.033 153.36 108.938 153.067 107.205C152.886 106.17 152.576 105.163 152.145 104.205L153.412 102.705L160.035 96.0225C159.847 100.53 159.51 107.835 162.997 110.258Z" fill="#B97964"/>
<path opacity="0.2" d="M153.112 107.588C154.927 106.508 156.93 104.632 156.69 102.495C156.607 101.708 156.434 100.932 156.172 100.185L152.475 105.082C152.772 105.894 152.985 106.733 153.112 107.588Z" fill="black"/>
<path d="M161.887 88.905C161.265 95.7 161.137 98.5875 157.635 102.15C152.385 107.513 144.24 105.713 142.845 98.97C141.585 92.9025 142.845 82.8 149.49 79.9425C150.903 79.2793 152.468 79.0065 154.022 79.1523C155.577 79.2982 157.063 79.8575 158.329 80.7721C159.594 81.6866 160.591 82.9232 161.217 84.3534C161.843 85.7835 162.074 87.3551 161.887 88.905Z" fill="#B97964"/>
<path d="M153.42 91.0425C153.382 91.68 152.992 92.205 152.542 92.2125C152.092 92.22 151.792 91.7175 151.792 91.08C151.792 90.4425 152.22 89.9175 152.67 89.91C153.12 89.9025 153.457 90.4125 153.42 91.0425Z" fill="#263238"/>
<path d="M146.37 90.9525C146.37 91.5675 145.95 92.0775 145.5 92.085C145.05 92.0925 144.75 91.5975 144.75 90.9825C144.75 90.3675 145.178 89.8575 145.62 89.85C146.063 89.8425 146.408 90.33 146.37 90.9525Z" fill="#263238"/>
<path d="M154.582 88.425C154.541 88.4375 154.497 88.4406 154.454 88.4341C154.412 88.4276 154.371 88.4117 154.335 88.3875C154.007 88.1462 153.623 87.991 153.22 87.9359C152.816 87.8809 152.406 87.9279 152.025 88.0725C151.987 88.0907 151.945 88.1006 151.903 88.1016C151.861 88.1026 151.819 88.0947 151.78 88.0785C151.741 88.0622 151.706 88.0379 151.677 88.0071C151.648 87.9764 151.626 87.9399 151.612 87.9C151.58 87.8153 151.581 87.7212 151.616 87.6374C151.651 87.5535 151.717 87.4864 151.8 87.45C152.278 87.2617 152.795 87.1959 153.304 87.2588C153.814 87.3217 154.3 87.5112 154.717 87.81C154.787 87.8649 154.833 87.9447 154.846 88.0327C154.859 88.1207 154.837 88.2102 154.785 88.2825C154.763 88.3193 154.734 88.3511 154.699 88.3756C154.664 88.4002 154.624 88.417 154.582 88.425Z" fill="#263238"/>
<path d="M144 88.2075C143.96 88.1938 143.923 88.1712 143.894 88.1413C143.864 88.1114 143.841 88.075 143.827 88.035C143.812 87.9947 143.805 87.9517 143.806 87.9085C143.808 87.8654 143.818 87.8229 143.836 87.7838C143.854 87.7446 143.88 87.7095 143.912 87.6805C143.944 87.6515 143.982 87.6292 144.022 87.615C144.514 87.3931 145.05 87.2884 145.589 87.3092C146.128 87.3301 146.654 87.4758 147.127 87.735C147.163 87.7575 147.194 87.7873 147.218 87.8225C147.241 87.8578 147.257 87.8976 147.264 87.9394C147.271 87.9812 147.269 88.0241 147.259 88.0651C147.248 88.1062 147.229 88.1445 147.202 88.1775C147.15 88.2494 147.072 88.2991 146.985 88.3171C146.898 88.3352 146.807 88.3202 146.73 88.275C146.352 88.0742 145.932 87.9635 145.504 87.9518C145.076 87.9401 144.651 88.0276 144.262 88.2075C144.177 88.2379 144.085 88.2379 144 88.2075Z" fill="#263238"/>
<path d="M159 93.165C159 93.165 156.9 90 157.77 83.82C157.858 83.3185 157.747 82.8023 157.459 82.3819C157.172 81.9614 156.732 81.67 156.232 81.57C153.3 81 149.377 77.295 144.585 84.645C144.585 84.645 147.022 75.3075 160.23 79.395C168.727 82.0275 163.98 92.6325 162.757 93.645C161.535 94.6575 159 93.165 159 93.165Z" fill="#263238"/>
<path d="M163.95 94.47C163.23 95.7288 162.041 96.6511 160.642 97.035C158.842 97.485 157.912 94.5975 158.527 92.79C158.816 91.9789 159.385 91.2975 160.132 90.8685C160.878 90.4395 161.754 90.2911 162.6 90.45C164.325 90.7725 164.865 92.85 163.95 94.47Z" fill="#B97964"/>
<path d="M148.2 90.765C147.592 92.2151 146.838 93.5997 145.95 94.8975C145.902 94.9635 145.87 95.0396 145.857 95.12C145.844 95.2004 145.849 95.2828 145.873 95.3606C145.897 95.4385 145.939 95.5097 145.995 95.5686C146.052 95.6275 146.121 95.6725 146.197 95.7C146.794 95.8668 147.424 95.8668 148.02 95.7L148.2 90.765Z" fill="#A24E3F"/>
<path d="M152.812 89.895L151.252 89.5275C151.252 89.5275 152.1 90.72 152.812 89.895Z" fill="#263238"/>
<path d="M145.792 89.8651L144.232 89.4976C144.232 89.4976 145.087 90.6601 145.792 89.8651Z" fill="#263238"/>
<path d="M158.542 78.9825C152.587 74.9775 146.377 78.3975 146.377 78.3975C139.252 82.53 142.402 89.4975 142.402 89.4975C147.382 86.8575 149.812 85.8525 154.59 83.1C153.472 84.885 155.34 87.3975 157.462 89.2425C159.585 91.0875 158.962 91.89 158.962 91.89C164.595 85.7025 164.497 82.995 158.542 78.9825Z" fill="#263238"/>
<path opacity="0.2" d="M162.75 92.1675C162.555 92.0265 162.322 91.9475 162.081 91.9408C161.84 91.9341 161.603 92.0001 161.4 92.13C160.996 92.3963 160.697 92.7936 160.552 93.255C160.362 93.8014 160.315 94.3879 160.417 94.9575" stroke="black" stroke-width="0.375" stroke-linecap="round" stroke-linejoin="round"/>
<path d="M148.425 97.6651C148.877 98.3861 149.278 99.1379 149.625 99.9151L150.06 99.7951C152.025 99.2626 152.76 98.3701 152.977 97.5451C153.075 97.1358 153.075 96.7093 152.977 96.3001C152.928 96.0667 152.844 95.8418 152.73 95.6326C151.663 96.5006 150.423 97.1298 149.092 97.4776C148.687 97.6051 148.425 97.6651 148.425 97.6651Z" fill="#263238"/>
<path d="M149.093 97.4701L149.46 98.1226C151.313 97.6126 152.55 97.0126 152.978 96.2926C152.928 96.0592 152.845 95.8343 152.73 95.6251C151.663 96.4931 150.423 97.1223 149.093 97.4701Z" fill="white"/>
<path d="M150.06 99.8026C152.025 99.2701 152.76 98.3776 152.977 97.5526C152.235 97.7678 151.537 98.1132 150.915 98.5726C150.509 98.884 150.21 99.3139 150.06 99.8026Z" fill="#DC5753"/>
<path opacity="0.3" d="M182.61 141.293C183.653 140.794 184.811 140.586 185.963 140.693C185.366 140.155 184.61 139.828 183.809 139.76C183.009 139.692 182.209 139.888 181.53 140.318L182.61 141.293Z" fill="black"/>
<path d="M170.88 157.223C170.88 157.223 168.18 153.428 167.032 153.173C165.885 152.918 160.627 153.578 160.53 154.328C160.516 154.43 160.524 154.533 160.552 154.632C160.58 154.731 160.629 154.824 160.694 154.903C160.76 154.983 160.841 155.048 160.933 155.095C161.024 155.141 161.125 155.169 161.227 155.175L159.93 156.675C159.93 156.675 159.93 157.125 160.53 157.223C160.53 157.223 160.582 158.325 161.182 158.378C162.187 158.223 163.174 157.972 164.13 157.628L162.18 158.978C162.18 158.978 161.88 159.473 163.38 159.323C163.761 159.319 164.137 159.237 164.486 159.082C164.834 158.927 165.147 158.703 165.405 158.423C165.405 158.423 168.877 161.378 170.58 161.378C171.562 161.387 172.535 161.183 173.43 160.778L170.88 157.223Z" fill="#B97964"/>
</svg>
