<svg width="73" height="111" viewBox="0 0 73 111" fill="none" xmlns="http://www.w3.org/2000/svg">
<path d="M3.22754 33.4868V44.1707H9.90498V33.4868H3.22754Z" fill="#262626"/>
<path d="M53.9766 33.4868V44.1707H61.9895V33.4868H53.9766Z" fill="#262626"/>
<path d="M61.991 42.8342H55.3136L52.6426 53.5181H61.991C62.8813 53.073 64.662 51.3813 64.662 48.1762C64.662 44.971 62.8813 43.2794 61.991 42.8342Z" fill="#FA9E3E"/>
<path d="M3.23362 44.1672H9.91106L12.582 54.8511H3.23362C2.34329 54.406 0.562643 52.7144 0.562643 49.5092C0.562643 46.304 2.34329 44.6124 3.23362 44.1672Z" fill="#FA9E3E"/>
<path d="M4.56348 85.5698C5.63187 77.0227 17.4732 71.3246 23.2603 69.5439L45.9636 70.8794C56.6475 76.2214 59.3185 82.0085 59.3185 84.2343L60.654 102.931H4.56348V85.5698Z" fill="#7179C3"/>
<path d="M59.3249 84.2318H55.3185C55.3185 82.0913 49.9713 74.8834 45.9648 72.2124L45.9701 70.877C50.4217 73.1028 59.3249 78.8899 59.3249 84.2318Z" fill="#4A56C3"/>
<path d="M16.588 72.2158L13.917 73.5513V102.932H51.3106V73.5513L48.6397 72.2158V86.9062H16.588V72.2158Z" fill="#F0EEEE"/>
<circle cx="57.9853" cy="96.2514" r="14.6904" fill="#8756D4"/>
<path d="M19.2549 70.8795L24.5968 68.2085H40.6227L45.9646 70.8795V85.5698H41.9582L33.9452 80.2279V78.8924H31.2743V80.2279L23.2613 85.5698H19.2549V70.8795Z" fill="#4A56C3"/>
<path d="M24.6006 73.5468V66.8694H40.6264V73.5468L35.2845 78.8888H29.9425L24.6006 73.5468Z" fill="#FA9E3E"/>
<path d="M31.2652 68.208C11.2365 68.208 7.23966 45.5047 8.57469 33.4854L56.6396 34.8208C56.6395 61.5306 47.5396 68.208 31.2652 68.208Z" fill="#FFB56B"/>
<path d="M50.71 34.8208L56.6519 33.4854C56.6519 54.8532 52.6454 64.2016 37.9551 68.208C52.6454 61.5306 52.6454 45.5047 50.71 34.8208Z" fill="#EF9245"/>
<circle cx="20.3452" cy="46.2732" r="2.1987" fill="black"/>
<circle cx="44.3872" cy="46.2732" r="2.1987" fill="black"/>
<path d="M26.0625 59.0247H39.4174" stroke="#162E3E" stroke-width="1.75896" stroke-linecap="round"/>
<path d="M32.6137 37.493L1.89746 33.4866L9.91039 0.0993652H56.6525L64.6654 33.4866L32.6137 37.493Z" fill="#F0EEEE"/>
<path d="M51.3086 0.0993652H56.6505L64.6635 33.4866H59.3215L51.3086 0.0993652Z" fill="#D9D4D4"/>
<path d="M3.23242 28.1464L4.07755 23.8462L32.6132 26.8109L62.5629 24.2859L63.3294 28.1464L32.6132 30.8174L3.23242 28.1464Z" fill="#4A56C3"/>
</svg>
