<svg width="21" height="21" viewBox="0 0 21 21" fill="none" xmlns="http://www.w3.org/2000/svg">
<path fill-rule="evenodd" clip-rule="evenodd" d="M9.23128 2.64453H5.3543V4.29032C5.3543 4.6424 5.06888 4.92782 4.7168 4.92782C4.36472 4.92782 4.0793 4.6424 4.0793 4.29032V2.64453H3.4C1.52223 2.64453 0 4.16676 0 6.04453V7.58316C0.0962817 7.52477 0.209255 7.49116 0.330078 7.49116H9.62021C9.22125 6.5748 9 5.56324 9 4.5C9 3.85959 9.08027 3.23793 9.23128 2.64453ZM10.3307 8.76616H0.330078C0.209255 8.76616 0.0962817 8.73255 0 8.67417V16.7929C0 18.6707 1.52223 20.1929 3.4 20.1929H13.6C15.4778 20.1929 17 18.6707 17 16.7929V11.9836C16.8347 11.9945 16.668 12 16.5 12C15.8972 12 15.311 11.9289 14.7493 11.7946C14.7502 11.8117 14.7507 11.829 14.7507 11.8463C14.7507 12.3848 14.3141 12.8213 13.7757 12.8213C13.2372 12.8213 12.8007 12.3848 12.8007 11.8463C12.8007 11.5848 12.9037 11.3473 13.0713 11.1722C11.9719 10.606 11.0305 9.77617 10.3307 8.76616ZM3.37539 12.8213C3.91387 12.8213 4.35039 12.3848 4.35039 11.8463C4.35039 11.3079 3.91387 10.8713 3.37539 10.8713C2.83691 10.8713 2.40039 11.3079 2.40039 11.8463C2.40039 12.3848 2.83691 12.8213 3.37539 12.8213ZM9.55085 11.8463C9.55085 12.3848 9.11433 12.8213 8.57585 12.8213C8.03737 12.8213 7.60085 12.3848 7.60085 11.8463C7.60085 11.3079 8.03737 10.8713 8.57585 10.8713C9.11433 10.8713 9.55085 11.3079 9.55085 11.8463ZM4.35048 16.2339C4.35048 16.7724 3.91396 17.2089 3.37548 17.2089C2.837 17.2089 2.40048 16.7724 2.40048 16.2339C2.40048 15.6954 2.837 15.2589 3.37548 15.2589C3.91396 15.2589 4.35048 15.6954 4.35048 16.2339ZM8.57594 17.2091C9.11442 17.2091 9.55094 16.7725 9.55094 16.2341C9.55094 15.6956 9.11442 15.2591 8.57594 15.2591C8.03747 15.2591 7.60094 15.6956 7.60094 16.2341C7.60094 16.7725 8.03747 17.2091 8.57594 17.2091ZM14.7508 16.2341C14.7508 16.7725 14.3142 17.2091 13.7758 17.2091C13.2373 17.2091 12.8008 16.7725 12.8008 16.2341C12.8008 15.6956 13.2373 15.2591 13.7758 15.2591C14.3142 15.2591 14.7508 15.6956 14.7508 16.2341Z" fill="#D9D9D9"/>
<circle cx="16" cy="5" r="5" fill="#9855D9"/>
</svg>
