<svg width="18" height="18" viewBox="0 0 18 18" fill="none" xmlns="http://www.w3.org/2000/svg">
<circle cx="13" cy="5" r="5" fill="#9855D9"/>
<path fill-rule="evenodd" clip-rule="evenodd" d="M8.10102 10H1C1 11.8565 1.7375 13.637 3.05025 14.9497C3.70026 15.5998 4.47194 16.1154 5.32122 16.4672C6.1705 16.8189 7.08075 17 8 17C9.85652 17 11.637 16.2625 12.9497 14.9497C13.8355 14.064 14.4594 12.9652 14.7715 11.7739C14.2057 11.9215 13.612 12 13 12C11.0927 12 9.36355 11.2372 8.10102 10Z" fill="white"/>
<path d="M8.10102 10L8.45097 9.64288C8.35751 9.5513 8.23187 9.5 8.10102 9.5V10ZM1 10V9.5C0.723858 9.5 0.5 9.72386 0.5 10H1ZM3.05025 14.9497L2.6967 15.3033L2.6967 15.3033L3.05025 14.9497ZM5.32122 16.4672L5.12987 16.9291H5.12987L5.32122 16.4672ZM12.9497 14.9497L13.3033 15.3033H13.3033L12.9497 14.9497ZM14.7715 11.7739L15.2552 11.9006C15.3002 11.7289 15.2507 11.5461 15.1253 11.4205C14.9998 11.2949 14.8171 11.2453 14.6453 11.2901L14.7715 11.7739ZM8.10102 9.5H1V10.5H8.10102V9.5ZM0.5 10C0.5 11.9891 1.29018 13.8968 2.6967 15.3033L3.40381 14.5962C2.18482 13.3772 1.5 11.7239 1.5 10H0.5ZM2.6967 15.3033C3.39314 15.9997 4.21993 16.5522 5.12987 16.9291L5.51256 16.0052C4.72394 15.6786 4.00739 15.1998 3.40381 14.5962L2.6967 15.3033ZM5.12987 16.9291C6.03982 17.306 7.01509 17.5 8 17.5V16.5C7.14641 16.5 6.30117 16.3319 5.51256 16.0052L5.12987 16.9291ZM8 17.5C9.98912 17.5 11.8968 16.7098 13.3033 15.3033L12.5962 14.5962C11.3772 15.8152 9.72391 16.5 8 16.5V17.5ZM13.3033 15.3033C14.2524 14.3542 14.9208 13.177 15.2552 11.9006L14.2878 11.6472C13.998 12.7535 13.4187 13.7737 12.5962 14.5962L13.3033 15.3033ZM14.6453 11.2901C14.1204 11.427 13.5691 11.5 13 11.5V12.5C13.655 12.5 14.291 12.4159 14.8977 12.2577L14.6453 11.2901ZM13 11.5C11.2288 11.5 9.62383 10.7922 8.45097 9.64288L7.75107 10.3571C9.10327 11.6822 10.9566 12.5 13 12.5V11.5Z" fill="#FAFAFA"/>
</svg>
