<svg width="21" height="20" viewBox="0 0 21 20" fill="none" xmlns="http://www.w3.org/2000/svg">
<path fill-rule="evenodd" clip-rule="evenodd" d="M17 11.9291C16.6734 11.9758 16.3395 12 16 12C12.134 12 9 8.86599 9 5C9 4.30503 9.10128 3.63371 9.28988 3H6C2.68629 3 0 5.68629 0 9V18C0 19.1046 0.89543 20 2 20H15C16.1046 20 17 19.1046 17 18V11.9291Z" fill="white"/>
<path d="M21 5C21 7.76142 18.7614 10 16 10C13.2386 10 11 7.76142 11 5C11 2.23858 13.2386 0 16 0C18.7614 0 21 2.23858 21 5Z" fill="#9855D9"/>
</svg>
