<svg width="17" height="17" viewBox="0 0 17 17" fill="none" xmlns="http://www.w3.org/2000/svg">
<path d="M1 5.61548H16V15.4232C16 15.5762 15.9392 15.7229 15.831 15.8311C15.7228 15.9393 15.5761 16.0001 15.4231 16.0001H1.57692C1.42391 16.0001 1.27717 15.9393 1.16898 15.8311C1.06078 15.7229 1 15.5762 1 15.4232V5.61548Z" stroke="#FAFAFA" stroke-linecap="round" stroke-linejoin="round"/>
<path d="M1 5.61539C1 4.39131 1.48626 3.21737 2.35181 2.35182C3.21737 1.48626 4.39131 1 5.61538 1H11.3846C12.6087 1 13.7826 1.48626 14.6482 2.35182C15.5137 3.21737 16 4.39131 16 5.61539" stroke="#FAFAFA" stroke-linecap="round" stroke-linejoin="round"/>
<path d="M13.1154 16V9.65383C13.1154 9.50082 13.0546 9.35408 12.9464 9.24588C12.8382 9.13769 12.6915 9.0769 12.5385 9.0769H4.46157C4.30856 9.0769 4.16181 9.13769 4.05362 9.24588C3.94543 9.35408 3.88464 9.50082 3.88464 9.65383V16" stroke="#FAFAFA" stroke-linecap="round" stroke-linejoin="round"/>
<path d="M3.88464 11.3845H13.1154" stroke="#FAFAFA" stroke-linecap="round" stroke-linejoin="round"/>
<path d="M3.88464 13.6924H13.1154" stroke="#FAFAFA" stroke-linecap="round" stroke-linejoin="round"/>
</svg>
