<svg width="16" height="18" viewBox="0 0 16 18" fill="none" xmlns="http://www.w3.org/2000/svg">
<circle cx="11" cy="5" r="5" fill="#9855D9"/>
<path fill-rule="evenodd" clip-rule="evenodd" d="M11.2205 11.1889C11.1473 11.1912 11.0738 11.1923 11 11.1923C7.40718 11.1923 4.44655 8.48554 4.0461 5C3.62261 5.46045 3.38624 6.06419 3.38624 6.6923V8.1923H0.886241L0.00624146 16.0823C-0.00950684 16.2226 0.00462862 16.3646 0.0477178 16.4991C0.090807 16.6335 0.161873 16.7573 0.256241 16.8623C0.350862 16.9671 0.466619 17.0508 0.59589 17.1076C0.725161 17.1645 0.865014 17.1934 1.00624 17.1923H10.7662C10.9075 17.1934 11.0473 17.1645 11.1766 17.1076C11.3059 17.0508 11.4216 16.9671 11.5162 16.8623C11.6106 16.7573 11.6817 16.6335 11.7248 16.4991C11.7679 16.3646 11.782 16.2226 11.7662 16.0823L11.2205 11.1889Z" fill="#FAFAFA"/>
</svg>
