<svg width="14" height="15" viewBox="0 0 14 15" fill="none" xmlns="http://www.w3.org/2000/svg">
<path d="M12.7662 12.89C12.782 13.0303 12.7679 13.1723 12.7248 13.3068C12.6817 13.4412 12.6106 13.565 12.5162 13.67C12.4216 13.7748 12.3059 13.8585 12.1766 13.9153C12.0473 13.9722 11.9075 14.0011 11.7662 14H2.00624C1.86501 14.0011 1.72516 13.9722 1.59589 13.9153C1.46662 13.8585 1.35086 13.7748 1.25624 13.67C1.16187 13.565 1.09081 13.4412 1.04772 13.3068C1.00463 13.1723 0.990493 13.0303 1.00624 12.89L1.88624 5H11.8862L12.7662 12.89Z" stroke="#FAFAFA" stroke-linecap="round" stroke-linejoin="round"/>
<path d="M4.38623 5V3.5C4.38623 2.83696 4.64962 2.20107 5.11846 1.73223C5.5873 1.26339 6.22319 1 6.88623 1C7.54927 1 8.18516 1.26339 8.654 1.73223C9.12284 2.20107 9.38623 2.83696 9.38623 3.5V5" stroke="#FAFAFA" stroke-linecap="round" stroke-linejoin="round"/>
</svg>
