<svg width="21" height="20" viewBox="0 0 21 20" fill="none" xmlns="http://www.w3.org/2000/svg">
<path fill-rule="evenodd" clip-rule="evenodd" d="M16.4412 12.9415C16.1329 12.9801 15.8188 13 15.5 13C11.3579 13 8 9.64214 8 5.5C8 4.9863 8.05165 4.48466 8.15003 4H3.94118C2.31681 4 1 5.31681 1 6.94118V16.5C1 18.1244 2.31681 19.4412 3.94118 19.4412H13.5C15.1244 19.4412 16.4412 18.1244 16.4412 16.5V12.9415Z" fill="#FAFAFA"/>
<path d="M16.4412 12.9415H16.9927C16.9927 12.7833 16.9247 12.6327 16.8061 12.528C16.6875 12.4234 16.5297 12.3747 16.3727 12.3943L16.4412 12.9415ZM8.15003 4L8.69048 4.10971C8.7234 3.94752 8.68174 3.77912 8.57701 3.65099C8.47227 3.52285 8.31552 3.44853 8.15003 3.44853V4ZM16.3727 12.3943C16.0871 12.4301 15.7958 12.4485 15.5 12.4485V13.5515C15.8417 13.5515 16.1787 13.5302 16.5097 13.4887L16.3727 12.3943ZM15.5 12.4485C11.6624 12.4485 8.55147 9.33757 8.55147 5.5H7.44853C7.44853 9.94671 11.0533 13.5515 15.5 13.5515V12.4485ZM8.55147 5.5C8.55147 5.02335 8.59938 4.55847 8.69048 4.10971L7.60958 3.89029C7.50391 4.41086 7.44853 4.94925 7.44853 5.5H8.55147ZM3.94118 4.55147H8.15003V3.44853H3.94118V4.55147ZM1.55147 6.94118C1.55147 5.62138 2.62138 4.55147 3.94118 4.55147V3.44853C2.01224 3.44853 0.448528 5.01224 0.448528 6.94118H1.55147ZM1.55147 16.5V6.94118H0.448528V16.5H1.55147ZM3.94118 18.8897C2.62138 18.8897 1.55147 17.8198 1.55147 16.5H0.448528C0.448528 18.429 2.01224 19.9927 3.94118 19.9927V18.8897ZM13.5 18.8897H3.94118V19.9927H13.5V18.8897ZM15.8897 16.5C15.8897 17.8198 14.8198 18.8897 13.5 18.8897V19.9927C15.429 19.9927 16.9927 18.429 16.9927 16.5H15.8897ZM15.8897 12.9415V16.5H16.9927V12.9415H15.8897Z" fill="#FAFAFA"/>
<circle cx="16" cy="5" r="5" fill="#9855D9"/>
</svg>
