<svg width="31" height="31" viewBox="0 0 31 31" fill="none" xmlns="http://www.w3.org/2000/svg">
<rect x="1.25" y="1.25" width="28.5" height="28.5" stroke="white" stroke-width="2.5" stroke-dasharray="26.23 26.23"/>
<path d="M15.4968 19.9487L10.7022 11.1988H8.90893L4.11426 19.9487H6.07283L7.16657 17.9139H12.4445L13.5383 19.9487H15.4968ZM11.7959 16.5403H7.8279L9.8119 12.9157L11.7959 16.5403ZM26.3197 19.9487L23.0766 17.0618C25.2387 17.0618 26.0399 16.5785 26.0399 14.4419V13.9077C26.0399 11.9237 25.3913 11.1988 23.5345 11.1988H16.387V19.9487H18.1166V17.0872H20.8764L23.9033 19.9487H26.3197ZM24.3357 14.6199C24.3357 15.383 24.0941 15.6501 23.4836 15.6501H18.1166V12.9411H23.4836C24.234 12.9411 24.3357 13.3481 24.3357 14.2002V14.6199Z" fill="white"/>
</svg>
