<svg width="40" height="40" viewBox="0 0 40 40" fill="none" xmlns="http://www.w3.org/2000/svg">
<path d="M38.9635 34.0826C40.3455 35.4659 40.3455 37.6177 38.9635 39.001C38.2726 39.6926 37.428 40 36.5067 40C35.5854 40 34.7409 39.6926 34.0499 39.001L20 24.9376L5.9501 39.001C5.25912 39.6926 4.41459 40 3.49328 40C2.57198 40 1.72745 39.6926 1.03647 39.001C-0.34549 37.6177 -0.34549 35.4659 1.03647 34.0826L15.0864 20.0192L1.03647 5.95581C-0.34549 4.57253 -0.34549 2.42075 1.03647 1.03746C2.41843 -0.345821 4.56814 -0.345821 5.9501 1.03746L20 15.1009L34.0499 1.03746C35.4319 -0.345821 37.5816 -0.345821 38.9635 1.03746C40.3455 2.42075 40.3455 4.57253 38.9635 5.95581L24.9136 20.0192L38.9635 34.0826Z" fill="#F4F4F4"/>
</svg>
