<svg width="32" height="32" viewBox="0 0 32 32" fill="none" xmlns="http://www.w3.org/2000/svg">
<rect width="32" height="32" rx="1" fill="#9855D9"/>
<path d="M24.6979 10.6679C24.6001 10.6114 24.4893 10.5817 24.3764 10.5817C24.2636 10.5817 24.1527 10.6114 24.055 10.6679L18.5714 13.3871V11.2143C18.5711 11.1047 18.5428 10.997 18.4891 10.9015C18.4354 10.8059 18.3583 10.7257 18.2649 10.6683C18.1715 10.611 18.065 10.5785 17.9555 10.5739C17.846 10.5694 17.7371 10.5928 17.6393 10.6421L12.1429 13.3871V8.64286C12.1429 8.47236 12.0751 8.30885 11.9546 8.18829C11.834 8.06773 11.6705 8 11.5 8H7.64286C7.47236 8 7.30885 8.06773 7.18829 8.18829C7.06773 8.30885 7 8.47236 7 8.64286V24.7143H25V11.2143C25.0002 11.105 24.9726 10.9975 24.9197 10.9019C24.8669 10.8063 24.7905 10.7258 24.6979 10.6679ZM19.8571 23.4286H17.2857V18.9286H19.8571V23.4286ZM23.7143 23.4286H21.1429V18.2857C21.1429 18.1152 21.0751 17.9517 20.9546 17.8311C20.834 17.7106 20.6705 17.6429 20.5 17.6429H16.6429C16.4724 17.6429 16.3088 17.7106 16.1883 17.8311C16.0677 17.9517 16 18.1152 16 18.2857V23.4286H8.28571V9.28571H10.8571V15.47L17.2857 12.2557V15.47L23.7143 12.2557V23.4286Z" fill="#FAFAFA"/>
</svg>
