<svg width="12" height="20" viewBox="0 0 12 20" fill="none" xmlns="http://www.w3.org/2000/svg">
<path d="M2.9856 11.25C3.67595 11.25 4.2356 10.6904 4.2356 10C4.2356 9.30964 3.67595 8.75 2.9856 8.75L2.9856 11.25ZM1.11607 9.11612C0.627915 9.60427 0.627915 10.3957 1.11607 10.8839L9.07102 18.8388C9.55918 19.327 10.3506 19.327 10.8388 18.8388C11.3269 18.3507 11.3269 17.5592 10.8388 17.0711L3.76772 10L10.8388 2.92893C11.3269 2.44078 11.3269 1.64932 10.8388 1.16117C10.3506 0.67301 9.55918 0.67301 9.07102 1.16117L1.11607 9.11612ZM2.9856 8.75H1.99995L1.99995 11.25H2.9856L2.9856 8.75Z" fill="white"/>
</svg>
