<svg width="28" height="26" viewBox="0 0 28 26" fill="none" xmlns="http://www.w3.org/2000/svg">
<path d="M13.9993 15.0393C15.288 15.0393 16.3327 14.1096 16.3327 12.9627C16.3327 11.8157 15.288 10.886 13.9993 10.886C12.7107 10.886 11.666 11.8157 11.666 12.9627C11.666 14.1096 12.7107 15.0393 13.9993 15.0393Z" fill="white"/>
<path d="M13.9993 7.77102C15.288 7.77102 16.3327 6.84126 16.3327 5.69435C16.3327 4.54743 15.288 3.61768 13.9993 3.61768C12.7107 3.61768 11.666 4.54743 11.666 5.69435C11.666 6.84126 12.7107 7.77102 13.9993 7.77102Z" fill="white"/>
<path d="M13.9993 22.3077C15.288 22.3077 16.3327 21.3779 16.3327 20.231C16.3327 19.0841 15.288 18.1544 13.9993 18.1544C12.7107 18.1544 11.666 19.0841 11.666 20.231C11.666 21.3779 12.7107 22.3077 13.9993 22.3077Z" fill="white"/>
</svg>
