<svg width="51" height="51" viewBox="0 0 51 51" fill="none" xmlns="http://www.w3.org/2000/svg">
<g filter="url(#filter0_d_0_726)">
<path d="M32.6667 43H27.8889V38.2222H32.6667V43ZM27.8889 26.2778H23.1111V38.2222H27.8889V26.2778ZM47 21.5H42.2222V31.0556H47V21.5ZM42.2222 16.7222H37.4445V21.5H42.2222V16.7222ZM13.5556 21.5H8.77778V26.2778H13.5556V21.5ZM8.77778 16.7222H4V21.5H8.77778V16.7222ZM25.5 4.77778H30.2778V0H25.5V4.77778ZM7.58333 3.58333V10.75H14.75V3.58333H7.58333ZM18.3333 14.3333H4V0H18.3333V14.3333ZM7.58333 32.25V39.4167H14.75V32.25H7.58333ZM18.3333 43H4V28.6667H18.3333V43ZM36.25 3.58333V10.75H43.4167V3.58333H36.25ZM47 14.3333H32.6667V0H47V14.3333ZM42.2222 38.2222V31.0556H32.6667V35.8333H37.4445V43H47V38.2222H42.2222ZM37.4445 21.5H27.8889V26.2778H37.4445V21.5ZM27.8889 16.7222H13.5556V21.5H18.3333V26.2778H23.1111V21.5H27.8889V16.7222ZM30.2778 14.3333V9.55556H25.5V4.77778H20.7222V14.3333H30.2778ZM12.9583 5.375H9.375V8.95833H12.9583V5.375ZM12.9583 34.0417H9.375V37.625H12.9583V34.0417ZM41.625 5.375H38.0417V8.95833H41.625V5.375Z" fill="#FAFAFA"/>
</g>
<defs>
<filter id="filter0_d_0_726" x="0" y="0" width="51" height="51" filterUnits="userSpaceOnUse" color-interpolation-filters="sRGB">
<feFlood flood-opacity="0" result="BackgroundImageFix"/>
<feColorMatrix in="SourceAlpha" type="matrix" values="0 0 0 0 0 0 0 0 0 0 0 0 0 0 0 0 0 0 127 0" result="hardAlpha"/>
<feOffset dy="4"/>
<feGaussianBlur stdDeviation="2"/>
<feComposite in2="hardAlpha" operator="out"/>
<feColorMatrix type="matrix" values="0 0 0 0 0 0 0 0 0 0 0 0 0 0 0 0 0 0 0.25 0"/>
<feBlend mode="normal" in2="BackgroundImageFix" result="effect1_dropShadow_0_726"/>
<feBlend mode="normal" in="SourceGraphic" in2="effect1_dropShadow_0_726" result="shape"/>
</filter>
</defs>
</svg>
