<svg width="20" height="34" viewBox="0 0 20 34" fill="none" xmlns="http://www.w3.org/2000/svg">
<path d="M16 19.25C14.7574 19.25 13.75 18.2426 13.75 17C13.75 15.7574 14.7574 14.75 16 14.75V19.25ZM18.591 15.409C19.4697 16.2877 19.4697 17.7123 18.591 18.591L4.27208 32.9099C3.3934 33.7886 1.96878 33.7886 1.0901 32.9099C0.211418 32.0312 0.211418 30.6066 1.0901 29.7279L13.818 17L1.0901 4.27208C0.211418 3.3934 0.211418 1.96878 1.0901 1.0901C1.96878 0.211418 3.3934 0.211418 4.27208 1.0901L18.591 15.409ZM16 14.75H17V19.25H16V14.75Z" fill="white"/>
</svg>
